<?xml version="1.0" encoding="utf-8"?>
<!-- Generator: Adobe Illustrator 16.0.0, SVG Export Plug-In . SVG Version: 6.00 Build 0)  -->
<!DOCTYPE svg PUBLIC "-//W3C//DTD SVG 1.1//EN" "http://www.w3.org/Graphics/SVG/1.1/DTD/svg11.dtd">
<svg version="1.1" id="Warstwa_1" xmlns="http://www.w3.org/2000/svg" xmlns:xlink="http://www.w3.org/1999/xlink" x="0px" y="0px"
	 width="628.947px" height="472.024px" viewBox="0 0 628.947 472.024" enable-background="new 0 0 628.947 472.024"
	 xml:space="preserve">
<path fill="#FFFFFF" d="M307.71,58.614c-2.145,2.446-16.243,16.342-19.224,18.185c0,0-3.884,3.953-17.849,6.496
	c0,0-8.477,1.651-25.219,2.01c-2.705,0.058-15.612-1.24-30.776,2.948c-19.951,5.51-58.272,24.515-66.043,37.374
	c-2.565,4.248-5.827,9.379-14.785,14.116l-13.362,5.124c-2.361,1.256-47.718,4.308-66.711,28.885
	c-21.818,28.231-6.281,74.716-2.931,82.754c17.48,41.939-7.468,77.444-10.381,79.403c0,0,7.736,2.109,19.742-10.55
	c12.006-12.658,13.463-29.337,13.814-32.602c0.346-3.217,3.713-24.068,3.718-24.112c0.301-2.914,5.425-23.158,17.08-23.912
	c0,0-7.334-15.925-7.535-23.761c0,0-1.105-12.106,1.809-25.117c1.008-4.499,4.622-15.341,6.229-18.638
	c1.004-2.06,6.128-14.567,20.496-22.555c0,0,7.95-3.619,13.664-3.115c3.416,0.302,0.068,7.419-0.535,8.374
	c-0.583,1.114-8.609,13.191-4.438,38.596c3.099,18.872,14.286,39.72,16.763,49.95c0.923,3.816,1.507,14.837-2.813,22.372
	s-16.863,16.191-21.836,18.753c-4.973,2.562-15.673,16.176-14.317,20.094c1.356,3.919,5.827,4.723,6.179,8.038
	c0.188,1.783,1.524,12.425,1.575,15.539c0,0,2.143,36.973-10.064,73.125c-0.704,2.086,3.416,6.229,5.224,8.288
	c1.809,2.06,0.653,4.672-2.11,8.842c-2.763,4.169-9.846,10.147-14.015,10.851v29.638c0,0,16.695-9.275,18.956-21.433
	c0,0,0.804-18.084,12.542-22.221c5.389-1.899,4.521-5.727,4.169-8.037c-0.352-2.312-1.758-11.103-3.266-14.016
	c0,0-4.873-11.654-4.119-17.08c0.754-5.426,3.215-17.08,3.466-19.039s3.717-20.696,4.923-24.715
	c1.206-4.02,5.727-15.455,13.629-24.163c0,0,8.461-11.005,16.06-21.45c2.411-3.315,36.119-31.849,37.425-33.758
	c1.306-1.909,15.02-14.367,20.244-22.706c0,0,6.245-13.848,8.841-19.993c2.055-4.865,8.188-22.455,35.121-23.479
	c8.263-0.313,15.965-0.483,17.425-0.483c0,0,21.4-0.553,26.373-0.502c4.974,0.05,38.48-4.069,40.993-5.225
	c0,0,31.397-8.49,32.15-9.646c0,0-6.295-8.373-10.381-13.53c-4.087-5.157,1.54-5.827,4.554-2.378
	c3.014,3.45,12.727,15.507,12.727,15.507l49.029,0.065l28.599,0.402c0,0,8.942-0.232-1.773,8.976c0,0-23.226,10.901-26.843,13.413
	s-5.525,0.703-6.129-0.201c-0.603-0.904-4.822-4.068-11.151,2.261c-4.146,4.146-13.212,7.686-19.793,0.15l-2.813-4.068
	c0,0-0.803-1.859-4.923,1.406c-5.044,3.998-20.495,12.308-20.495,12.308s-4.069,1.657-0.854,3.215
	c3.216,1.558,6.581,4.119,13.966,3.566c7.384-0.553,18.838-2.763,20.897-3.566s4.672,1.607,6.781,2.612
	c2.11,1.005,11.103,3.969,19.642-0.402c8.54-4.37,26.323-16.175,30.141-18.637c3.818-2.461,18.537-9.645,18.688-10.197
	s-3.052-3.777-2.261-4.873c1.307-1.809,3.969,1.406,5.777,1.558c0,0,7.485,1.758,10.047-5.827c0,0,0.078-10.005-0.854-12.559
	c-1.356-3.718-8.038-8.239-26.072-9.695c0,0-12.308-1.407-17.28-2.361c-4.974-0.954-26.785-7.522-27.78-8.088
	c-2.21-1.256-1.657-4.974,4.521-3.768s21.199,5.928,23.66,6.581c2.462,0.652,5.953-12.419,6.53-14.367
	c0.955-3.215,4.521-15.573,1.759-18.437c0,0-12.76-20.043-26.574-29.688c0,0-12.106-9.695-13.814-10.75s-0.954-5.727,3.315-2.763
	s29.639,22.053,34.36,27.779c0,0,8.489,10.398,9.394,12.659c0,0,38.982-42.13,76.859-26.725c0,0-0.754-12.609,1.205-16.577
	c0,0-10.648-0.302-26.121,3.667c-6.142,1.576-21.199,5.425-44.006,22.555c0,0-7.377,4.132-0.201-2.562
	c29.639-27.645,68.084-31.663,76.559-29.789c1.02,0.226-0.604,4.119-1.758,7.385c-1.156,3.265-0.805,9.042-0.102,17.632
	s7.988,18.537,10.852,20.646s9.695,9.093,24.463,8.892c0,0,16.527-0.703,18.285-1.055c1.76-0.352,6.633,9.695,8.088,11.453
	c1.457,1.759,2.613,3.667,2.562,4.923s-2.562,1.959-4.018-0.101c-1.457-2.06-7.988-11.704-8.691-12.458
	c-0.703-0.753-4.27-0.502-6.932-0.201c-2.664,0.302-2.924,1.248-2.998,1.692c-0.301,1.809,5.057,7.199,6.012,7.853
	c0,0,6.832,7.184,7.535,8.842c0.703,1.657-0.502,7.184,0.553,8.64c1.055,1.457,3.08,5.793,16.443,4.537c0,0,4.504-0.618,9.074-9.711
	c0,0,5.627-8.289-0.803-13.513c-3.266-2.653-5.777-10.801-6.832-13.614L599.91,72.58c0,0,1.74-6.028-0.771-9.344
	c-2.703-3.57-20.797-26.692-20.797-26.692l14.016-16.51c0,0-21.074,3.745-24.062,5.274c-4.42,2.261-5.893,4.403-3.818,10.901
	c0,0-39.08-27.177-116.477-30.075c0,0-39.652-0.166-81.447,14.201c-7.284,2.504-30.443,11.252-50.136,29.236L307.71,58.614z"/>
<g>
	<path fill="#A38963" d="M100.442,417.188c-1.698-2.573-5.56-7.101-5.56-7.101s-1.115-2.188,0.87-5.96
		c2.009-3.818,14.401-47.957,4.756-85.6c-0.697-2.718-8.038-3.685-4.152-13.397c1.33-3.326,4.42-14.399,21.701-24.915
		c0,0,11.72-8.375,12.055-9.847c0,0,4.154-3.809,4.421-11.253c0.294-8.161-2.284-16.208-5.59-24.622h-23.847
		c2.86,8.696,5.56,16.317,5.56,16.317l-10.951-0.251c0,0-10.047-1.289-14.417,12.81c0,0-2.06,7.586-2.06,17.13
		c0,5.878-0.352,18.638-0.703,20.597s-0.955,14.769-14.216,26.474c-1.973,1.742-17.18,18.386-37.375,9.545
		c0,0,18.938-15.104,16.829-48.477c-0.649-10.269-8.145-31.887-12.333-54.145H0v189.018h97.772
		C99.946,421.393,101.587,418.923,100.442,417.188z"/>
	<path fill="#A38963" d="M211.426,249.539c0,0-27.061,26.926-50.57,45.211c-4.119,3.204-15.001,13.799-25.518,31.883
		c0,0-4.22,7.3-5.76,18.085c-1.089,7.62-4.958,22.103-5.425,37.641c-0.261,8.638-1.071,10.183,0.468,13.599
		c1.542,3.416,4.755,15.271,3.416,21.099c-0.792,3.448-2.944,5.296-4.875,6.456h476.899V234.494H221.361
		C220.891,236.171,218.694,242.675,211.426,249.539z M394.284,248.648c98.584,0,178.501,35.594,178.501,79.5
		s-79.917,79.5-178.501,79.5s-178.501-35.594-178.501-79.5S295.7,248.648,394.284,248.648z"/>
</g>
<g>
	<path fill="#FFFFFF" d="M369.069,373.043v-9.466h-2.5v-1.566l4.969-0.749v11.781H369.069z"/>
	<path fill="#FFFFFF" d="M391.032,368.409c-1.674,0.256-3.392,0.384-5.154,0.384c-1.824,0-3.09-0.204-3.799-0.612
		c-0.754-0.438-1.13-1.239-1.13-2.403v-1.565c0-1.904,1.326-2.856,3.979-2.856h4.929c1.461,0,2.467,0.253,3.018,0.759
		c0.55,0.506,0.825,1.452,0.825,2.84v1.539c0,2.174-0.75,3.846-2.249,5.015s-3.619,1.754-6.361,1.754
		c-0.377,0-0.656-0.011-0.836-0.031l-1.605-1.812h0.746c2.32,0,4.022-0.196,5.107-0.589
		C389.767,370.392,390.61,369.585,391.032,368.409z M391.163,366.623c0.045-0.272,0.067-0.507,0.067-0.704
		c0-1.088-0.136-1.788-0.407-2.098c-0.271-0.311-0.947-0.466-2.031-0.466h-3.229c-0.828,0-1.393,0.106-1.693,0.317
		c-0.302,0.213-0.452,0.59-0.452,1.135v0.658c0,0.59,0.181,0.979,0.542,1.168c0.361,0.189,1.046,0.284,2.055,0.284
		C387.505,366.918,389.221,366.819,391.163,366.623z"/>
	<path fill="#FFFFFF" d="M406.672,373.168v-2.719h-8.844v-1.938l8.756-7.281h2.557v7.281h2.841v1.938h-2.841v2.719H406.672z
		 M406.672,368.512v-5.229l-6.376,5.229H406.672z"/>
	<path fill="#FFFFFF" d="M416.47,367.831l0.656-6.476h10.096l-0.202,2h-8.149l-0.272,2.263c1.933-0.195,3.511-0.294,4.733-0.294
		c3.855,0,5.783,1.323,5.783,3.968c0,1.391-0.516,2.384-1.545,2.98c-1.029,0.598-2.654,0.896-4.873,0.896
		c-2.416,0-4.295-0.144-5.639-0.433l-0.588-2.272c2.248,0.407,4.302,0.611,6.159,0.611c1.419,0,2.438-0.14,3.057-0.419
		s0.929-0.775,0.929-1.486c0-0.664-0.317-1.141-0.951-1.428c-0.574-0.258-1.532-0.386-2.876-0.386
		C421.006,367.355,418.899,367.515,416.47,367.831z"/>
</g>
<g>
	<rect x="253.557" y="366.352" fill="#FFFFFF" width="108.745" height="2"/>
</g>
<g>
	<rect x="434.177" y="366.352" fill="#FFFFFF" width="100.667" height="2"/>
</g>
<g>
	<path fill="#FFFFFF" d="M430.276,321.732c-0.379-12.521-10.53-27.412-27.603-27.602c-7.636-0.086-26.938,0.178-26.938,0.178V338.7
		c0,0-24.65,0.326-24.874,0.319c-9.818-0.284-22.34,0.854-26.224-12.52l41.909-0.072l2.133-0.113c0,0,1.365-5.626-0.247-11.838
		c-7.452-28.669-47.594-30.021-55.71-0.286c-0.965,3.536-1.203,8.468-0.705,11.1c0.371,1.958,3.194,23.27,27.009,24.425
		l44.184-0.023l4.808,0.023l0.261-42.921l12.972-0.238c9.105,0,16.694,7.755,16.694,15.936l-0.19,27.009l12.38,0.078
		C430.135,349.578,430.448,327.422,430.276,321.732z M355.622,314.02l-30.258-0.021C332.861,298.304,351.644,302.928,355.622,314.02
		z"/>
	<circle fill="#FFFFFF" cx="442.391" cy="274.201" r="8.632"/>
	<path fill="#FFFFFF" d="M505.205,319.93l26.326-26.346l-18.074,0.07l-17.264,17.074l-17.311-17.12l-18.212-0.142l26.321,26.605
		l-17.202,17.135c-3.346,0.037-7.036,0.081-7.341,0.081c-12.023,0-15.484-3.13-14.584-15.152l-0.033-28.423l-12.393,0.18
		l-0.024,37.705c0.072,9.391,5.621,17.926,18.782,17.926l4.224-0.01l0.086-0.062l17.293,0.072l20.251-20.298l20.68,20.583h18.496
		L505.205,319.93z"/>
	<path fill="#FFFFFF" d="M280.36,306.411l24.188,0.003l10.27-12.404l-33.461,0.025c-17.008,0.912-23.708,12.131-26.328,20.083
		c-0.001,0.004-0.003,0.01-0.004,0.014h-6.356l-9.854,11.881h14.574l0.082,23.323l12.557-0.024l-0.046-23.299h11.25v-0.011h28.22
		l0.022-11.905h-38.829C270.922,307.883,274.433,306.65,280.36,306.411z"/>
</g>
<g>
	<path fill="#333333" d="M137.079,130.952c10.119-25.042,41.538-43.886,130.208-57.77c17.256-2.702,36.605-17.617,38.313-18.085
		s4.252,1.071,2.11,3.517c-2.145,2.446-16.243,16.342-19.224,18.185c0,0-3.884,3.953-17.849,6.496c0,0-8.477,1.651-25.219,2.01
		c-2.705,0.058-15.612-1.24-30.776,2.948c-19.951,5.51-58.272,24.515-66.043,37.374c-2.565,4.248-5.827,9.379-14.785,14.116
		c-1.67,0.884-6.279,3.406-6.882,0.854C126.496,138.756,134.467,137.417,137.079,130.952z"/>
	<path fill="#333333" d="M116.316,345.186c0,0,5.758-27.595,1.875-32.417c0,0-4.688-6.162-0.402-9.243
		c4.286-3.082,2.276-5.091-0.804-3.082c-3.08,2.01-5.091,8.438-3.752,13.396c1.341,4.958,2.815,12.725,2.279,18.085
		c-0.537,5.359-1.004,9.745-1.074,10.717C114.307,344.517,115.177,347.396,116.316,345.186z"/>
	<path fill="#333333" d="M67.755,278.34c0,0,3.215-10.047,1.809-27.025c-1.407-16.979-2.21-27.127-2.713-28.333
		c-0.502-1.205-2.612-2.009-6.631,0c-4.019,2.01-3.215-32.953,14.066-44.005c5.982-3.826,5.827-4.421,5.827-4.421
		s3.014-4.621-3.617-0.302c0,0-21.265,9.78-23.208,46.016c0,0-0.101,15.874,5.526,8.238c5.626-7.636,5.296-0.611,5.391,1.607
		c0.149,3.463,3.325,25.627,1.743,36.304c-1.608,10.851-5.023,29.905,0.402,17.849C67.002,282.819,67.755,278.34,67.755,278.34z"/>
	<path fill="#333333" d="M399.406,164.91c5.218-0.326,49.632,4.622,51.139,5.526s2.411,1.708,0.101,1.607
		s-50.737-3.517-51.642-4.923S397.799,165.011,399.406,164.91z"/>
	<path fill="#333333" d="M310.557,48.602c0,0,24.23-30.278,86.94-44.074c85.868-18.889,143.604,10.717,165.44,20.764
		c0,0,0-4.017,17.682-6.698l21.1-4.285l-18.486,22.773l19.725,25.753c0,0,3.652,5.861,0.703,9.61l17.615,47.02l1.541,4.556
		c0,0,12.123,7.501,2.277,19.959c-3.525,4.46-6.365,11.789-9.646,11.925c-3.279,0.132-14.332-0.604-14.332-0.604
		s-10.113-2.144-9.779-10.784c0.143-3.68,0.469-5.359-0.135-6.163c-0.602-0.804-9.645-11.253-9.645-11.253s-3.816-4.352-4.689-5.356
		c-0.871-1.005-3.213-0.737-3.951-0.737c-0.736,0-23.645,2.477-33.893-20.964c-1.072-2.455,0,0-3.014-7.368
		c0,0-12.021-12.308-36.486-3.366c-3.036,1.11-15.773,7.284-24.564,18.838c-3.088,4.06-20.262,24.38-21.802,36.973
		c-0.478,3.902,0.202,4.153,1.474,4.556s18.15,3.683,18.15,3.683s12.258,3.482,14.066,4.487c1.808,1.004,0.135,0.068,0.135,0.068
		s4.15,2.411,4.889,7.702c0.737,5.29,0.871,11.318,0.871,11.318l0.133,4.088c0,0,0.336,3.481-6.094,5.29
		c-3.773,1.062-22.306,10.182-27.932,14.401c-2.705,2.028-12.524,5.358-18.018,9.243c0,0-7.703,6.429-10.649,8.907
		c-2.946,2.479-9.778,4.421-12.525,4.354c-2.286-0.057-6.431,0.67-10.181-1.809c-2.729-1.804-5.357-3.483-8.773-3.014
		c-3.416,0.469-8.635,3.138-14.402,4.153c-12.926,2.276-22.418-4.645-24.916-6.43c0,0-6.497-4.087-6.631-4.354
		c-0.134-0.269-0.938-1.005,3.282-3.014c4.22-2.01,8.372-3.551,10.382-4.488c2.009-0.938,20.965-12.993,22.371-13.664
		c1.407-0.67,3.685-0.736,5.694,1.273c2.009,2.009,4.688,4.755,5.292,5.559c0.603,0.804,2.477,3.215,3.884,2.612
		c0,0,7.567-6.698,11.654-6.765c4.086-0.067,5.693-0.201,9.109,1.139c0,0,2.478,1.74,7.97-2.479c5.493-4.22,8.575-4.822,9.981-5.491
		c1.406-0.67,5.825-3.148,5.893-4.019c0.068-0.871-1.74-1.005-4.554-1.205c-2.813-0.201-30.61,0.065-30.61,0.065h-11.252
		c0,0-44.742,12.86-115.876,13.598c0,0-19.936,0.609-24.582,0.669c-15.807,0.201-27.461,7.701-30.208,11.855
		c-2.746,4.153-6.496,12.257-9.711,26.657c0,0-1.607,7.502-10.047,15.473c0,0-27.061,26.926-50.57,45.211
		c-4.119,3.204-15.001,13.799-25.518,31.883c0,0-4.22,7.3-5.76,18.085c-1.089,7.62-4.958,22.103-5.425,37.641
		c-0.261,8.638-1.071,10.183,0.468,13.599c1.542,3.416,4.755,15.271,3.416,21.099c-1.339,5.827-6.565,7.099-8.038,8.171
		s-5.559,3.817-6.162,13.596c0,0-0.067,6.698-8.171,15.941c0,0-7.362,8.703-19.157,16.075c-4.822,3.015-4.554-0.336-4.42-3.215
		l0.535-37.374c0,0,7.166-1.607,9.51-2.612c2.346-1.005,10.518-7.101,8.308-10.449c-1.698-2.573-5.56-7.101-5.56-7.101
		s-1.115-2.188,0.87-5.96c2.009-3.818,14.401-47.957,4.756-85.6c-0.697-2.718-8.038-3.685-4.152-13.397
		c1.33-3.326,4.42-14.399,21.701-24.915c0,0,11.72-8.375,12.055-9.847c0,0,4.154-3.809,4.421-11.253
		c0.805-22.303-19.824-43.735-18.217-74.212c0,0,0.669-8.372,2.545-13.998c0.523-1.568,5.057-10.718,6.026-12.963
		c0.953-2.2-12.188-0.166-20.194,13.397c0,0-3.683,4.22-6.043,19.943c0,0-2.009,11.905,0.301,22.454
		c2.311,10.55,11.705,37.073,11.705,37.073l-10.951-0.251c0,0-10.047-1.289-14.417,12.81c0,0-2.06,7.586-2.06,17.13
		c0,5.878-0.352,18.638-0.703,20.597s-0.955,14.769-14.216,26.474c-1.973,1.742-17.18,18.386-37.375,9.545
		c0,0,18.938-15.104,16.829-48.477c-1.225-19.375-26.825-79.152-8.59-107.401c16.284-25.228,48.611-37.792,80.526-39.736
		c7.595-0.461,3.114,2.11,0.753,3.366s-47.718,4.308-66.711,28.885c-21.818,28.231-6.281,74.716-2.931,82.754
		c17.48,41.939-7.468,77.444-10.381,79.403c0,0,7.736,2.109,19.742-10.55c12.006-12.658,13.463-29.337,13.814-32.602
		c0.346-3.217,3.713-24.068,3.718-24.112c0.301-2.914,5.425-23.158,17.08-23.912c0,0-7.334-15.925-7.535-23.761
		c0,0-1.105-12.106,1.809-25.117c1.008-4.499,4.622-15.341,6.229-18.638c1.004-2.06,6.128-14.567,20.496-22.555
		c0,0,7.95-3.619,13.664-3.115c3.416,0.302,0.068,7.419-0.535,8.374c-0.583,1.114-8.609,13.191-4.438,38.596
		c3.099,18.872,14.286,39.72,16.763,49.95c0.923,3.816,1.507,14.837-2.813,22.372s-16.863,16.191-21.836,18.753
		c-4.973,2.562-15.673,16.176-14.317,20.094c1.356,3.919,5.827,4.723,6.179,8.038c0.188,1.783,1.524,12.425,1.575,15.539
		c0,0,2.143,36.973-10.064,73.125c-0.704,2.086,3.416,6.229,5.224,8.288c1.809,2.06,0.653,4.672-2.11,8.842
		c-2.763,4.169-9.846,10.147-14.015,10.851v29.638c0,0,16.695-9.275,18.956-21.433c0,0,0.804-18.084,12.542-22.221
		c5.389-1.899,4.521-5.727,4.169-8.037c-0.352-2.312-1.758-11.103-3.266-14.016c0,0-4.873-11.654-4.119-17.08
		c0.754-5.426,3.215-17.08,3.466-19.039s3.717-20.696,4.923-24.715c1.206-4.02,5.727-15.455,13.629-24.163
		c0,0,8.461-11.005,16.06-21.45c2.411-3.315,36.119-31.849,37.425-33.758c1.306-1.909,15.02-14.367,20.244-22.706
		c0,0,6.245-13.848,8.841-19.993c2.055-4.865,8.188-22.455,35.121-23.479c8.263-0.313,15.965-0.483,17.425-0.483
		c0,0,21.4-0.553,26.373-0.502c4.974,0.05,38.48-4.069,40.993-5.225c0,0,31.397-8.49,32.15-9.646c0,0-6.295-8.373-10.381-13.53
		c-4.087-5.157,1.54-5.827,4.554-2.378c3.014,3.45,12.727,15.507,12.727,15.507l49.029,0.065l28.599,0.402
		c0,0,8.942-0.232-1.773,8.976c0,0-23.226,10.901-26.843,13.413s-5.525,0.703-6.129-0.201c-0.603-0.904-4.822-4.068-11.151,2.261
		c-4.146,4.146-13.212,7.686-19.793,0.15l-2.813-4.068c0,0-0.803-1.859-4.923,1.406c-5.044,3.998-20.495,12.308-20.495,12.308
		s-4.069,1.657-0.854,3.215c3.216,1.558,6.581,4.119,13.966,3.566c7.384-0.553,18.838-2.763,20.897-3.566s4.672,1.607,6.781,2.612
		c2.11,1.005,11.103,3.969,19.642-0.402c8.54-4.37,26.323-16.175,30.141-18.637c3.818-2.461,18.537-9.645,18.688-10.197
		s-3.052-3.777-2.261-4.873c1.307-1.809,3.969,1.406,5.777,1.558c0,0,7.485,1.758,10.047-5.827c0,0,0.078-10.005-0.854-12.559
		c-1.356-3.718-8.038-8.239-26.072-9.695c0,0-12.308-1.407-17.28-2.361c-4.974-0.954-26.785-7.522-27.78-8.088
		c-2.21-1.256-1.657-4.974,4.521-3.768s21.199,5.928,23.66,6.581c2.462,0.652,5.953-12.419,6.53-14.367
		c0.955-3.215,4.521-15.573,1.759-18.437c0,0-12.76-20.043-26.574-29.688c0,0-12.106-9.695-13.814-10.75s-0.954-5.727,3.315-2.763
		s29.639,22.053,34.36,27.779c0,0,8.489,10.398,9.394,12.659c0,0,38.982-42.13,76.859-26.725c0,0-0.754-12.609,1.205-16.577
		c0,0-10.648-0.302-26.121,3.667c-6.142,1.576-21.199,5.425-44.006,22.555c0,0-7.377,4.132-0.201-2.562
		c29.639-27.645,68.084-31.663,76.559-29.789c1.02,0.226-0.604,4.119-1.758,7.385c-1.156,3.265-0.805,9.042-0.102,17.632
		s7.988,18.537,10.852,20.646s9.695,9.093,24.463,8.892c0,0,16.527-0.703,18.285-1.055c1.76-0.352,6.633,9.695,8.088,11.453
		c1.457,1.759,2.613,3.667,2.562,4.923s-2.562,1.959-4.018-0.101c-1.457-2.06-7.988-11.704-8.691-12.458
		c-0.703-0.753-4.27-0.502-6.932-0.201c-2.664,0.302-2.924,1.248-2.998,1.692c-0.301,1.809,5.057,7.199,6.012,7.853
		c0,0,6.832,7.184,7.535,8.842c0.703,1.657-0.502,7.184,0.553,8.64c1.055,1.457,3.08,5.793,16.443,4.537
		c0,0,4.504-0.618,9.074-9.711c0,0,5.627-8.289-0.803-13.513c-3.266-2.653-5.777-10.801-6.832-13.614L599.91,72.58
		c0,0,1.74-6.028-0.771-9.344c-2.703-3.57-20.797-26.692-20.797-26.692l14.016-16.51c0,0-21.074,3.745-24.062,5.274
		c-4.42,2.261-5.893,4.403-3.818,10.901c0,0-39.08-27.177-116.477-30.075c0,0-39.652-0.166-81.447,14.201
		c-7.284,2.504-30.443,11.252-50.136,29.236C311.949,53.65,308.012,51.95,310.557,48.602z"/>
</g>
</svg>
