<svg viewBox="0 0 139 49.85" xmlns="http://www.w3.org/2000/svg" data-name="Warstwa 2" id="Warstwa_2">
  <g data-name="Warstwa 1" id="Warstwa_1-2">
    <g>
      <path d="M42.79,45.39l-.14,2.16h-6.09v-.37c.1,0,.24-.02.41-.04.17-.02.28-.04.34-.07.11-.05.19-.12.23-.2.04-.08.07-.19.07-.32v-5.27c0-.11-.02-.21-.06-.3-.04-.09-.12-.16-.24-.21-.09-.04-.22-.08-.37-.12-.16-.03-.28-.05-.38-.06v-.37h5.67v1.77h-.39c-.07-.26-.22-.54-.45-.83-.23-.29-.45-.46-.65-.48-.11-.01-.23-.02-.38-.03-.15,0-.32-.01-.51-.01h-1.15v2.91h.83c.26,0,.46-.03.58-.08s.23-.13.32-.25c.08-.1.14-.23.19-.4.05-.17.09-.32.11-.47h.39v2.87h-.39c-.01-.17-.05-.34-.11-.52-.06-.18-.12-.32-.19-.4-.11-.13-.23-.22-.36-.26-.14-.04-.32-.06-.54-.06h-.83v2.2c0,.22.02.39.05.52s.09.22.18.29.21.11.37.13c.16.02.38.03.66.03h.45c.19,0,.34,0,.47-.02.13-.01.27-.04.41-.08s.24-.08.3-.15c.16-.17.33-.42.5-.75s.28-.58.33-.74h.37Z"></path>
      <path d="M48.44,42.77c-.16.03-.3.08-.44.17-.14.08-.26.23-.36.45-.2.46-.41.94-.63,1.44-.22.5-.44,1.03-.68,1.58-.07.16-.14.35-.22.56-.08.22-.15.43-.21.63h-.4c-.33-.81-.63-1.55-.9-2.21-.28-.67-.56-1.35-.86-2.05-.07-.16-.18-.28-.33-.37s-.31-.14-.46-.17v-.34h2.36v.36c-.1,0-.23.03-.39.06-.16.04-.23.09-.23.16l.03.08.05.15c.14.35.34.84.6,1.47s.47,1.14.63,1.52c.12-.3.28-.66.47-1.1.19-.44.39-.93.61-1.48.03-.09.07-.18.1-.26l.05-.25-.08-.16-.2-.12-.23-.08-.19-.04v-.33h1.95v.31Z"></path>
      <path d="M53.19,46.35c-.21.41-.5.73-.86.97s-.77.36-1.23.36c-.41,0-.77-.07-1.08-.22-.31-.14-.56-.34-.76-.59-.2-.25-.35-.54-.45-.87-.1-.33-.15-.68-.15-1.05,0-.33.05-.66.16-.97.11-.32.26-.6.46-.86.2-.24.44-.44.73-.59.29-.15.62-.22.98-.22s.69.06.96.17c.26.12.48.28.65.48.16.19.28.42.35.68.08.26.12.55.12.85v.34h-3.37c0,.33.03.64.1.91.06.27.16.51.3.72.13.2.31.36.53.47.22.12.47.17.77.17s.57-.07.79-.22c.22-.14.44-.4.64-.78l.36.22ZM52.05,44.41c0-.19-.02-.4-.05-.62-.03-.22-.08-.4-.16-.55-.08-.16-.19-.29-.33-.39s-.32-.15-.53-.15c-.36,0-.66.15-.9.45-.24.3-.37.72-.39,1.25h2.36Z"></path>
      <path d="M57.68,43.11c0,.17-.04.33-.13.47-.09.14-.22.2-.4.2-.19,0-.34-.05-.44-.15s-.15-.21-.15-.33l.02-.21.03-.19c-.16,0-.35.07-.57.2s-.4.32-.55.56v2.96c0,.12.02.22.07.29.05.08.12.13.22.17.09.04.2.06.33.08.14.02.25.03.35.04v.34h-2.69v-.34l.25-.02.22-.04c.1-.03.17-.08.21-.16.05-.08.07-.18.07-.3v-3.14c0-.11-.03-.21-.08-.31-.05-.1-.12-.19-.21-.25l-.23-.09c-.09-.02-.19-.03-.29-.04v-.34l1.69-.11.07.07v.72h.03c.21-.28.45-.49.71-.64.26-.14.5-.22.72-.22s.39.07.53.21c.14.14.2.33.2.57Z"></path>
      <path d="M57.72,49.21c0-.17.05-.31.14-.42.09-.11.21-.16.35-.16.11,0,.21.02.28.06l.21.16.17.21.14.22c.17-.09.38-.33.62-.73s.41-.74.52-1.03c-.33-.82-.62-1.55-.89-2.19-.27-.64-.54-1.31-.83-2-.07-.16-.18-.28-.33-.37-.16-.09-.31-.14-.47-.17v-.34h2.33v.36c-.1,0-.23.03-.37.06-.14.04-.22.08-.22.14l.02.1.05.15c.13.34.33.83.6,1.47.27.64.48,1.16.62,1.54.16-.37.32-.75.48-1.14.17-.39.35-.86.56-1.4.02-.07.06-.16.1-.27.04-.12.07-.21.07-.3,0-.09-.08-.17-.23-.25-.16-.08-.31-.12-.45-.14v-.33h1.89v.32c-.1.02-.24.08-.41.18-.17.1-.29.25-.38.43-.41.95-.77,1.82-1.09,2.6s-.56,1.36-.73,1.73c-.22.48-.41.86-.58,1.13-.17.27-.34.48-.5.64-.16.14-.3.24-.43.29-.13.05-.26.08-.4.08-.27,0-.48-.06-.63-.19-.15-.13-.23-.27-.23-.44Z"></path>
      <path d="M66.46,47.33c-.22.09-.44.17-.64.23-.2.06-.44.1-.73.1-.43,0-.73-.11-.9-.32-.17-.21-.26-.52-.26-.91v-3.45h-.92v-.5h.94v-1.59h.94v1.59h1.46v.5h-1.45v2.85c0,.21,0,.39.02.53.02.14.05.27.11.38.05.1.14.18.25.23.11.05.26.08.44.08.09,0,.21,0,.38-.02s.29-.04.35-.06v.38Z"></path>
      <path d="M72.51,47.55h-2.5v-.34c.08,0,.17-.01.26-.02.1,0,.18-.02.24-.04.1-.03.17-.08.21-.16.05-.08.07-.18.07-.3v-2.62c0-.36-.09-.64-.26-.84s-.38-.29-.62-.29c-.18,0-.35.03-.5.09-.15.06-.29.13-.41.21-.12.09-.21.17-.27.26l-.14.22v2.93c0,.12.02.21.07.29.05.08.12.13.21.17l.23.08c.08.02.17.03.27.04v.34h-2.5v-.34l.25-.02.22-.04c.1-.03.17-.08.21-.16.05-.08.07-.18.07-.3v-5.94c0-.12-.03-.23-.08-.35-.05-.12-.12-.21-.21-.26-.06-.04-.17-.08-.33-.1-.16-.02-.28-.03-.38-.04v-.33l1.89-.11.07.08v3.55h.02c.11-.11.22-.21.31-.3.09-.09.22-.18.37-.28.13-.08.29-.15.46-.21.18-.06.38-.08.6-.08.46,0,.81.14,1.05.43.25.29.37.7.37,1.24v2.65c0,.12.02.22.07.29.04.07.12.13.22.17l.22.07c.06.02.15.03.25.03v.34Z"></path>
      <path d="M75.6,47.55h-2.46v-.34l.25-.02.22-.04c.1-.03.17-.08.21-.16.05-.08.07-.18.07-.3v-3.14c0-.11-.03-.21-.08-.3-.05-.09-.12-.17-.21-.23-.07-.04-.16-.08-.28-.11s-.24-.05-.34-.05v-.34l1.8-.11.07.07v4.15c0,.12.02.22.07.3.05.08.12.14.22.17l.22.08.24.04v.34ZM74.95,40.39c0,.2-.06.37-.19.51s-.29.22-.48.22c-.18,0-.33-.07-.46-.21-.13-.14-.19-.3-.19-.48,0-.19.06-.35.19-.5.13-.14.28-.21.46-.21.2,0,.36.07.48.2.13.13.19.29.19.46Z"></path>
      <path d="M81.86,47.55h-2.49v-.34c.08,0,.17-.01.26-.02s.17-.02.24-.04c.1-.03.17-.08.21-.16.05-.08.07-.18.07-.3v-2.62c0-.36-.09-.64-.26-.84s-.38-.29-.62-.29c-.18,0-.35.03-.5.09s-.29.13-.4.21c-.11.08-.21.16-.27.26-.07.09-.12.16-.15.22v2.93c0,.12.02.21.07.29.05.08.12.13.22.17l.24.08.26.04v.34h-2.5v-.34l.25-.02.22-.04c.1-.03.17-.08.21-.16.05-.08.07-.18.07-.3v-3.14c0-.12-.03-.22-.08-.32-.05-.1-.12-.18-.21-.24l-.23-.09c-.09-.02-.19-.03-.29-.04v-.34l1.69-.11.07.07v.72h.03c.08-.08.19-.18.31-.3.12-.12.24-.21.35-.28.13-.08.28-.15.45-.21.18-.06.37-.08.59-.08.49,0,.85.15,1.09.46.24.3.35.71.35,1.22v2.65c0,.12.02.22.06.29s.11.13.21.17l.21.07c.06.01.14.02.25.03v.34Z"></path>
      <path d="M86.85,47.02c.14.13.25.28.33.44.08.17.12.37.12.62s-.05.47-.16.69c-.11.22-.27.4-.49.56-.23.16-.51.29-.83.38-.32.09-.72.13-1.19.13-.77,0-1.35-.11-1.73-.34-.38-.23-.57-.55-.57-.99,0-.35.14-.63.41-.83.28-.2.63-.31,1.05-.33v-.07c-.1-.03-.21-.07-.32-.12-.11-.05-.21-.1-.28-.16-.09-.07-.16-.16-.22-.26-.05-.1-.08-.22-.08-.36,0-.18.06-.35.19-.5s.33-.29.59-.4v-.08c-.33-.16-.59-.35-.77-.6-.18-.24-.27-.52-.27-.84,0-.48.18-.88.54-1.19.36-.31.82-.46,1.38-.46.16,0,.31.01.46.05.15.03.31.07.47.12h1.78v.5h-1.2v.03c.13.15.22.31.28.49.06.18.09.35.09.53,0,.45-.18.83-.54,1.14-.36.31-.79.46-1.27.46h-.62l-.25.15c-.09.07-.13.17-.13.29s.04.22.11.29c.07.07.16.11.26.14.1.03.22.04.35.05.13,0,.27.01.41.02.15,0,.36.01.62.03.26.02.45.03.56.03.16,0,.32.04.48.11.16.07.31.16.44.28ZM86.44,48.28c0-.19-.04-.35-.13-.48s-.23-.21-.41-.25c-.1-.01-.29-.03-.59-.05s-.65-.03-1.04-.03c-.37.07-.64.19-.79.36-.16.17-.24.39-.24.66,0,.12.03.24.08.35.05.11.14.21.27.3.12.09.28.16.49.22.2.06.45.08.74.08.51,0,.9-.1,1.2-.29.29-.19.44-.49.44-.89ZM85.45,44c0-.4-.08-.72-.25-.96-.16-.24-.39-.36-.69-.36-.16,0-.3.03-.42.1-.12.07-.21.16-.28.29-.07.11-.12.25-.15.41s-.04.32-.04.49c0,.38.08.69.25.93.17.24.38.36.65.36.3,0,.52-.12.68-.36s.24-.54.24-.91Z"></path>
      <path d="M94.21,40.17c0,.16-.04.29-.12.39-.08.11-.21.16-.38.16-.11,0-.2-.02-.28-.07l-.23-.18c-.07-.08-.13-.16-.19-.26s-.11-.17-.15-.23c-.23.01-.41.17-.53.48-.13.31-.19.81-.19,1.49v.52h1.31v.5h-1.31v3.66c0,.12.02.22.07.29.05.08.12.13.22.17.08.03.19.06.33.08.14.02.26.03.36.04v.34h-2.69v-.34l.25-.02.22-.04c.1-.03.17-.08.21-.16.05-.08.07-.18.07-.3v-3.71h-1.01v-.5h1.01v-.33c0-.77.2-1.4.6-1.88.4-.48.9-.72,1.51-.72.31,0,.54.06.69.18.16.12.23.27.23.44Z"></path>
      <path d="M98.83,44.95c0,.36-.06.71-.17,1.06-.11.35-.28.64-.49.88-.24.28-.51.48-.83.61-.31.13-.67.2-1.05.2-.32,0-.63-.06-.93-.18s-.55-.3-.78-.54c-.22-.23-.4-.51-.54-.84-.13-.33-.2-.71-.2-1.12,0-.8.23-1.45.7-1.95.46-.51,1.07-.76,1.82-.76s1.3.24,1.77.72.7,1.12.7,1.92ZM97.76,44.96c0-.26-.03-.53-.08-.82-.05-.29-.13-.53-.23-.73-.11-.21-.25-.38-.43-.51s-.4-.19-.66-.19-.49.07-.68.2c-.19.13-.34.31-.46.54-.11.21-.19.45-.23.72s-.07.53-.07.78c0,.33.03.64.08.92.05.28.14.53.26.75s.26.39.44.52c.18.12.4.19.66.19.43,0,.77-.21,1.02-.62.25-.42.38-.99.38-1.73Z"></path>
      <path d="M103.47,43.11c0,.17-.04.33-.13.47-.09.14-.22.2-.4.2-.19,0-.34-.05-.44-.15s-.15-.21-.15-.33l.02-.21.03-.19c-.16,0-.35.07-.57.2s-.4.32-.55.56v2.96c0,.12.02.22.07.29.05.08.12.13.22.17.09.04.2.06.33.08.14.02.25.03.35.04v.34h-2.69v-.34l.25-.02.22-.04c.1-.03.17-.08.21-.16.05-.08.07-.18.07-.3v-3.14c0-.11-.03-.21-.08-.31-.05-.1-.12-.19-.21-.25l-.23-.09c-.09-.02-.19-.03-.29-.04v-.34l1.69-.11.07.07v.72h.03c.21-.28.45-.49.71-.64.26-.14.5-.22.72-.22s.39.07.53.21c.14.14.2.33.2.57Z"></path>
      <path d="M114.18,47.55h-3.04v-.37c.08,0,.2-.02.36-.03.16-.01.26-.04.32-.06.1-.04.18-.1.23-.19.05-.08.07-.19.07-.33v-2.61h-3.45v2.55c0,.12.02.22.06.3.04.08.12.16.24.22.06.03.16.06.31.09.15.03.27.05.35.05v.37h-3.04v-.37c.08,0,.2-.02.36-.03.16-.01.26-.04.32-.06.1-.04.18-.1.23-.19.05-.08.07-.19.07-.33v-5.29c0-.11-.02-.21-.07-.3-.04-.09-.12-.16-.23-.21-.09-.04-.21-.08-.34-.12s-.25-.05-.34-.06v-.37h3.04v.37c-.1,0-.21.02-.35.05-.14.03-.24.05-.31.08-.12.04-.2.11-.24.21-.04.1-.06.2-.06.32v2.27h3.45v-2.22c0-.11-.02-.21-.07-.3-.04-.09-.12-.16-.23-.21-.09-.04-.21-.08-.34-.12-.13-.03-.25-.05-.34-.06v-.37h3.04v.37c-.1,0-.21.02-.35.05-.14.03-.24.05-.31.08-.12.04-.2.11-.23.21-.04.1-.06.2-.06.32v5.29c0,.12.02.22.06.3.04.08.12.16.23.22.06.03.16.06.31.09.15.03.27.05.35.05v.37Z"></path>
      <path d="M120.04,44.95c0,.36-.06.71-.17,1.06-.11.35-.28.64-.49.88-.24.28-.51.48-.83.61-.31.13-.67.2-1.05.2-.32,0-.63-.06-.93-.18s-.55-.3-.78-.54c-.22-.23-.4-.51-.54-.84-.13-.33-.2-.71-.2-1.12,0-.8.23-1.45.7-1.95.46-.51,1.07-.76,1.82-.76s1.3.24,1.77.72.7,1.12.7,1.92ZM118.98,44.96c0-.26-.03-.53-.08-.82-.05-.29-.13-.53-.23-.73-.11-.21-.25-.38-.43-.51s-.4-.19-.66-.19-.49.07-.68.2c-.19.13-.34.31-.46.54-.11.21-.19.45-.23.72s-.07.53-.07.78c0,.33.03.64.08.92.05.28.14.53.26.75s.26.39.44.52c.18.12.4.19.66.19.43,0,.77-.21,1.02-.62.25-.42.38-.99.38-1.73Z"></path>
      <path d="M124.68,43.11c0,.17-.04.33-.13.47-.09.14-.22.2-.4.2-.19,0-.34-.05-.44-.15s-.15-.21-.15-.33l.02-.21.03-.19c-.16,0-.35.07-.57.2s-.4.32-.55.56v2.96c0,.12.02.22.07.29.05.08.12.13.22.17.09.04.2.06.33.08.14.02.25.03.35.04v.34h-2.69v-.34l.25-.02.22-.04c.1-.03.17-.08.21-.16.05-.08.07-.18.07-.3v-3.14c0-.11-.03-.21-.08-.31-.05-.1-.12-.19-.21-.25l-.23-.09c-.09-.02-.19-.03-.29-.04v-.34l1.69-.11.07.07v.72h.03c.21-.28.45-.49.71-.64.26-.14.5-.22.72-.22s.39.07.53.21c.14.14.2.33.2.57Z"></path>
      <path d="M128.48,45.06c.14.12.25.27.33.43.08.16.11.36.11.59,0,.47-.18.86-.53,1.16-.35.3-.81.45-1.37.45-.3,0-.57-.05-.82-.16-.25-.11-.43-.21-.53-.29l-.1.34h-.39l-.05-1.77h.36c.03.13.09.29.18.47s.2.34.33.49c.13.15.3.28.48.38s.4.16.63.16c.33,0,.59-.08.76-.23s.27-.37.27-.65c0-.14-.03-.27-.08-.37-.06-.11-.14-.2-.25-.28-.11-.08-.25-.15-.42-.21-.17-.06-.35-.13-.55-.19-.16-.05-.34-.11-.54-.2-.2-.08-.37-.18-.51-.3-.15-.12-.28-.27-.37-.44s-.14-.38-.14-.62c0-.42.15-.77.46-1.06.31-.29.72-.43,1.25-.43.2,0,.4.03.61.08.21.05.38.11.51.19l.12-.27h.37l.08,1.64h-.36c-.07-.37-.23-.66-.47-.89s-.53-.34-.88-.34c-.28,0-.5.07-.67.21-.16.14-.24.31-.24.52,0,.15.03.28.08.39.05.1.13.19.24.26.1.07.23.13.39.19.16.06.35.13.58.2.23.07.44.16.64.25.2.1.37.2.5.32Z"></path>
      <path d="M134.21,46.35c-.21.41-.5.73-.86.97s-.77.36-1.23.36c-.41,0-.77-.07-1.08-.22-.31-.14-.56-.34-.76-.59-.2-.25-.35-.54-.45-.87-.1-.33-.15-.68-.15-1.05,0-.33.05-.66.16-.97.11-.32.26-.6.46-.86.2-.24.44-.44.73-.59.29-.15.62-.22.98-.22s.69.06.96.17c.26.12.48.28.65.48.16.19.28.42.35.68.08.26.12.55.12.85v.34h-3.37c0,.33.03.64.1.91.06.27.16.51.3.72.13.2.31.36.53.47.22.12.47.17.77.17s.57-.07.79-.22c.22-.14.44-.4.64-.78l.36.22ZM133.07,44.41c0-.19-.02-.4-.05-.62-.03-.22-.08-.4-.16-.55-.08-.16-.19-.29-.33-.39s-.32-.15-.53-.15c-.36,0-.66.15-.9.45-.24.3-.37.72-.39,1.25h2.36Z"></path>
      <path d="M138.16,45.06c.14.12.25.27.33.43.08.16.11.36.11.59,0,.47-.18.86-.53,1.16-.35.3-.81.45-1.37.45-.3,0-.57-.05-.82-.16-.25-.11-.43-.21-.53-.29l-.1.34h-.39l-.05-1.77h.36c.03.13.09.29.18.47s.2.34.33.49c.13.15.3.28.48.38s.4.16.63.16c.33,0,.59-.08.76-.23s.27-.37.27-.65c0-.14-.03-.27-.08-.37-.06-.11-.14-.2-.25-.28-.11-.08-.25-.15-.42-.21-.17-.06-.35-.13-.55-.19-.16-.05-.34-.11-.54-.2-.2-.08-.37-.18-.51-.3-.15-.12-.28-.27-.37-.44s-.14-.38-.14-.62c0-.42.15-.77.46-1.06.31-.29.72-.43,1.25-.43.2,0,.4.03.61.08.21.05.38.11.51.19l.12-.27h.37l.08,1.64h-.36c-.07-.37-.23-.66-.47-.89s-.53-.34-.88-.34c-.28,0-.5.07-.67.21-.16.14-.24.31-.24.52,0,.15.03.28.08.39.05.1.13.19.24.26.1.07.23.13.39.19.16.06.35.13.58.2.23.07.44.16.64.25.2.1.37.2.5.32Z"></path>
      <path d="M55.67,32.2c-1.68,2.82-5.12,3.2-6.89,3.2-5.11,0-8.69-4.14-8.69-10.08,0-5.51,3.1-9.67,7.99-9.67,3.75,0,6.2,2.46,7,5.97l.07.32h.59v-7.34h-.56l-.09.29c-.17.53-.41.8-.71.8-.36,0-.88-.13-1.53-.3-1.11-.29-2.64-.68-4.56-.68-2.18,0-4.15.44-5.86,1.29-.65-.41-8.07-5.08-8.31-5.57-.46-.95.39-.66,1.4-.76,1.01-.1,1.02-.86,1.02-.86,0,0-1.56.63-1.86-.23-.18-.5,1.9-1.31,2.64-1.92,1.58-1.31,1.27-3.46,1.21-3.31-1.02,2.63-4.34,3.52-4.7,2.52,1.17-1.21,1.36-2.97,1.22-2.81-1.33,1.54-4.04,2.74-3.54,1.85.53-.95.92-3.55.74-3.34-2.12,2.4-3.69,2.76-5.15,3.01-.75.13-5.74.51-6.76-1-3.23-4.81-3.59-3.97-3.69-2.12-.09,1.54-.86,2.15-1.15,2.24-1.27.41-1.92-.02-2.96.19-1.19.23-1.99,1.28-1.43,1.09,1.48-.5,1.53.52,1.34.78s-2.03,1.97-5.01,8.08C4.48,19.95,1.08,20.97.2,23.35c-.88,2.38,1.16,6.74,5.01,5.58,3.85-1.16,9.86-5.51,11.76-6.61.6-.35,2.15-.47,2.49.63.52,1.71.12,15.82.59,16.37.47.55.54.68.54.68l-.07-.13,6.34-6.72s-1.47-4.06,1.18-4.76c0,0,.93-2.02-.8-2.32-1.21-.45-1.59-.84-1.21-2.64-.62,0-1.02-.06-1.01-.25.03-.58,1.17-1.06,1.3-2.21.1-.37.19-1.11-.25-1.63-.44-.52-2.03-.2-2.23-.27-.2-.07-.3-.66-.05-.66.84-.01,1.64-.06,1.8-.42.33-.72.15-2.62,2.46-3.91,2.32-1.29,5.37-.94,6.72.09,1.35,1.03,1.57,2.35,1.59,2.92,0,.2-.33,2.26.43,2.35,1.32.16-1.7,2.43-.43,4.54h0c-.16.79-.24,1.6-.24,2.44,0,3.36,1.28,6.21,3.68,8.23,2.03,1.75,4.68,2.67,7.65,2.67,3.42,0,6.8-1.33,8.55-4.89l.19-.39-.34-.15-.19.31Z"></path>
      <path d="M73.16,34.07c-.24.49-1,1.15-1.71,1.1-.41-.03-.58-.31-.58-1.78v-5.27c0-4.35-1.94-6.37-6.11-6.37-2.99,0-5.31,1.73-6.05,4.51l-.15.55h.3l.11-.3c.62-1.67,3.28-2.59,5.04-2.59,1.97,0,2.98,1.18,2.98,3.5v.72l-.84.25c-5.12,1.51-7.94,2.18-7.94,5.3,0,2.27,2.81,3.62,4.62,3.54,2.21-.1,3.25-1.18,4.47-2.2.51,1.07,1.44,2.28,2.69,2.28,1.81,0,3.37-1.31,3.56-3.2l.05-.49h-.28l-.18.45ZM66.99,34.29c-.72.92-2.18,1.53-3.13,1.53-1.29,0-2.27-.86-2.27-2.23,0-1.91,1.84-3.24,5.41-4.38v5.08Z"></path>
      <path d="M107.48,34.07c-.24.49-1,1.15-1.71,1.1-.41-.03-.58-.31-.58-1.78v-5.27c0-4.35-1.94-6.37-6.11-6.37-2.99,0-5.31,1.73-6.05,4.51l-.15.55h.3l.11-.3c.62-1.67,3.28-2.59,5.04-2.59,1.98,0,2.98,1.18,2.98,3.5v.72l-.84.25c-5.12,1.51-7.94,2.18-7.94,5.3,0,2.27,2.81,3.62,4.62,3.54,2.21-.1,3.25-1.18,4.47-2.2.51,1.07,1.44,2.28,2.69,2.28,1.81,0,3.37-1.31,3.56-3.2l.05-.49h-.28l-.18.45ZM101.31,34.29c-.72.92-2.18,1.53-3.13,1.53-1.29,0-2.27-.86-2.27-2.23,0-1.91,1.84-3.24,5.41-4.38v5.08Z"></path>
      <path d="M89.14,22.13c-1.01,0-2.02,0-2.98-.04l-.55-.02v1.44l.49.03c1.48.08,1.59.42,1.59.89,0,.29-.12.55-.27.88l-3.33,6.78-3.45-6.91c-.19-.35-.29-.64-.29-.91s0-.65,1.4-.73l.49-.03v-1.43l-.54.02c-1.3.04-2.64.04-3.99.04h-.02c-1.4,0-2.8,0-4.25-.04h-.54s0,1.45,0,1.45h.77c1.18,0,1.87.53,2.57,1.97l5.91,11.8h.71l5.47-11.13c1.02-2.02,1.47-2.61,2.99-2.64h.21v-1.47l-.25.02c-1.06.04-1.12,0-2.14.04Z"></path>
      <path d="M116.21,33.3V13.94c-2.01,0-4.24.02-6.07.02v.77h.63c1.27,0,1.88,1.36,1.88,3.48v15.1c0,1.57-.39,3.19-2.08,3.22h-.42v.78h.44c2.58-.08,5.11-.08,7.45-.01h.44s0-.76,0-.76l-.41-.02c-1.53-.06-1.85-1.67-1.85-3.22Z"></path>
      <path d="M129.99,21.75c-4.97,0-9.01,3.49-9.01,7.78s4.04,7.78,9.01,7.78,9.01-3.49,9.01-7.78-4.04-7.78-9.01-7.78ZM129.99,35.76c-1.57,0-4.28-2.45-4.28-6.18s1.23-6.74,4.28-6.74c3.04,0,4.34,2.85,4.34,6.69s-2.5,6.23-4.34,6.23Z"></path>
    </g>
  </g>
</svg>