<?xml version="1.0" encoding="UTF-8"?>
<svg id="Warstwa_1" xmlns="http://www.w3.org/2000/svg" version="1.1" viewBox="0 0 447.2421 205.0446">
  <!-- Generator: Adobe Illustrator 30.2.1, SVG Export Plug-In . SVG Version: 2.1.1 Build 1)  -->
  <defs>
    <style>
      .st0 {
        fill: #1d1d1b;
        fill-rule: evenodd;
      }
    </style>
  </defs>
  <path class="st0" d="M1.4917,82.8823l.3436,2.4061c.227.0569,6.895,5.4688,9.2211,6.4904,2.855,1.2544,8.3134,2.052,12.5404,1.448l1.4188-.203c8.9132-1.273,14.809-6.7969,21.4103-9.974,8.4476-4.0646,11.9401-6.247,23.7994-7.9412,3.4906-.4989,9.2648,1.216,10.9721,3.3423.1341,1.9551-3.4461,9.0638-4.2868,12.2063-1.2787,4.78-1.3975,8.911-2.7315,13.5286-3.7012,12.8086-6.4956,11.5821-20.0874,14.974-4.4601,1.1132-10.2096,16.9271-12.2607,21.6295-1.7768,4.0725-3.5362,7.3579-5.3833,11.274-.9771,2.0701-1.798,3.7125-2.844,5.6834-.3966.7469-4.8192,3.8886-4.936,3.9047-3.8899.5559-5.2619,1.1637-4.4027,7.1757,8.8945-4.1344,11.7082-10.6036,16.0991-18.3651,2.1858-3.8645,10.3473-19.3737,14.6109-19.9829l4.6077-.8183,5.4368.2012c.0995,1.4477-5.0989,14.7274-5.9958,17.0938-1.1313,2.9866-1.7756,5.4351-4.2032,7.3463-1.7776,1.3997-5.3638,4.7891-7.217,5.0862l-.7555,5.394c.7127-.193,8.4779-6.2127,9.7124-7.2397,2.6538-2.207,3.8174-7.5285,5.5221-10.8034,1.4888-2.8596,3.7832-8.2332,4.8725-11.3559,1.5616-4.4736,5.9967-5.3747,11.3411-6.2075,10.3162-1.609,17.8269-5.258,23.5622-10.9619,3.7363-3.7148,14.7892-12.5031,21.1031-13.405,16.5844-2.3692,25.7522,4.8931,40.3889,5.5105,7.2073.3042,13.1439,1.5242,21.5977.3804,3.7397-.5065,8.5895-1.8672,11.4352-.7784,3.2925,1.2592,5.7323,6.4928,7.0994,6.2972l1.7736-.2531c6.1878-.8842,10.1773-5.679,15.3647-2.8406,4.5028,2.4633,8.528,3.668,13.1213,6.4213,4.3869,2.6297,7.9497,4.9992,11.8471,8.3574,2.9256,2.5208,8.5827,7.643,11.5628,9.3146l4.144-1.6336.1856-.6704-36.1516-25.6311-.3175.5862-.1718-1.2031c14.3056-2.0437,17.9935-1.3586,27.9516,5.3697,3.1246,2.111,8.4345,5.241,11.0889,7.5566,2.1821,1.9032,7.3011,9.0953,10.3646,8.6576l2.8371-.4054c4.7597-.6803-7.855-8.0351-8.0943-8.2012-3.5399-2.4576-6.8615-5.178-10.404-7.6212-2.3533-1.6225-19.974-15.0072-20.4434-15.933l-28.8083,1.1866-.0419-.663-.1721-1.203c-.0147-.1063.375-10.3008.2923-12.4339-.1849-4.7228-.8779-9.398-1.5906-14.3858-.3656-2.5617-.6363-5.1577-.8954-7.6513h.0003l-.0023-.0196c-.1165-1.1228-.2313-2.2249-.3512-3.2938-1.4375-14.5775-.6086-25.3704,12.9231-27.7447.7592,4.3254,5.8797,3.975,10.2637,4.0711,4.4513.0972,5.1659,2.8023,11.2774,2.2465l1.6798,3.6329,7.9719-.6483c2.1458-.1951,2.4896-2.956,2.2884-5.1738l-.3487-3.8305c-.2849-3.1331-9.7384-8.1759-11.8032-10.72-3.5813-4.4142-5.5907-9.8238-11.6784-10.8703l2.2884-5.1736-.2988-3.2836-9.4904,6.16c-10.0026,1.0604-19.5452,2.563-28.4383,7.0424-18.76,9.4492-33.8068,41.7274-44.7766,44.1374-.398.0456-.792.0927-1.1812.142-.0692.0011-.1389.0068-.2081.0054l.116.0062c-.3223.0414-.6427.0842-.9579.129l-5.3175.7877-26.8869,1.7674-11.7039,1.6722c-.7903.1128-9.654,3.8339-10.552,4.4121-3.6967,2.3803-5.1936,3.9073-8.1054,6.8457-1.9001-.2208-8.8546-3.4118-12.9444-4.2506-3.1706-.6497-11.2601-2.1115-14.6741-1.6236l-5.3198.7599c-17.2738,2.4679-25.2621,11.7924-38.9299,13.7452-4.7713.6815-6.7365-.4484-10.2736-.9873h0ZM126.9885,185.5804h-6.122v-3.8109c-1.7555,1.5222-3.5887,2.711-5.4995,3.5555-1.9111.8441-3.9776,1.2665-6.2221,1.2665-4.333,0-7.7771-1.6668-10.3325-5.0108-2.5444-3.3443-3.822-7.9773-3.822-13.8991,0-3.0776.4442-5.8331,1.3221-8.233.8776-2.4108,2.0664-4.4662,3.5552-6.1551,1.4777-1.6444,3.2-2.9109,5.1664-3.7777,1.9667-.8666,3.9997-1.2997,6.0996-1.2997,1.9111,0,3.5997.1998,5.0774.5998s3.0334,1.0222,4.6554,1.8777v-15.7658h6.122v50.6526h0ZM120.8665,176.6365c-1.5443,1.211-3.1998,2.211-4.9774,2.9775-1.7776.7668-3.5441,1.1554-5.2775,1.1554-3.2553,0-5.622-1.1219-7.0997-3.3664-1.4777-2.2442-2.2107-5.5329-2.2107-9.8549,0-4.3776.9553-7.7661,2.8664-10.1549,1.9108-2.3887,4.5774-3.5776,8.0107-3.5776,1.5332,0,2.9554.1446,4.2664.4221,1.2997.2778,2.7774.7889,4.4218,1.5333v20.8655h0ZM171.1792,167.4148c0,5.933-1.5222,10.6104-4.5553,14.0324-3.0331,3.4333-7.1107,5.1443-12.2102,5.1443-5.1333,0-9.2217-1.711-12.2437-5.1443-3.0334-3.422-4.5442-8.0994-4.5442-14.0324,0-5.9218,1.5108-10.5993,4.5442-14.0436,3.022-3.4331,7.1104-5.1551,12.2437-5.1551,5.0995,0,9.1771,1.722,12.2102,5.1551,3.0331,3.4443,4.5553,8.1218,4.5553,14.0436h0ZM164.8684,167.4148c0,4.5998-.9332,8.0663-2.7887,10.3995-1.8553,2.3332-4.4107,3.4997-7.666,3.4997-3.2888,0-5.8663-1.1778-7.7108-3.5331-1.8443-2.3553-2.7664-5.8108-2.7664-10.3661,0-4.6998.9221-8.1995,2.7553-10.4881,1.8332-2.289,4.4107-3.4334,7.7219-3.4334,3.2774,0,5.8439,1.1444,7.6884,3.4334,1.8442,2.2886,2.7663,5.7883,2.7663,10.4881h0ZM213.8145,167.126c0,3.0441-.4334,5.7773-1.2889,8.1995-.8555,2.4333-2.0109,4.4776-3.4665,6.1217-1.5333,1.711-3.2329,2.9999-5.0774,3.8554-1.8442.8555-3.8665,1.2889-6.0885,1.2889-2.0554,0-3.8554-.2446-5.3998-.7333-1.5443-.489-3.0551-1.1444-4.5552-1.9667l-.389,1.6889h-5.7327v-50.6526h6.1217v18.11c1.711-1.4108,3.5331-2.5665,5.4663-3.4665,1.9332-.8997,4.0997-1.3552,6.5109-1.3552,4.2996,0,7.6884,1.6444,10.1769,4.9442,2.4778,3.2995,3.7222,7.9548,3.7222,13.9657h0ZM207.5037,167.2927c0,4.744-.9555,8.2326-2.8777,10.4661-1.9219,2.222-4.5774,3.3329-7.9659,3.3329-1.5778,0-2.9999-.1556-4.2443-.4555s-2.7443-.8444-4.4776-1.6333v-20.8318c1.5667-1.2113,3.2556-2.2111,5.0777-2.9778,1.8221-.7665,3.6218-1.1554,5.4107-1.1554,3.1887,0,5.4995,1.1222,6.9327,3.3664,1.4335,2.2442,2.1444,5.544,2.1444,9.8884h0ZM247.1947,155.9045h-.322c-.911-.2223-1.8-.3779-2.6555-.4779-.8555-.0998-1.8666-.1443-3.0441-.1443-1.889,0-3.7111.4221-5.4663,1.2554-1.7555.8331-3.4555,1.9109-5.0777,3.2332v25.8095h-6.1217v-36.3535h6.1217v5.3666c2.4332-1.9443,4.5776-3.3333,6.4329-4.1443,1.8556-.811,3.7443-1.2223,5.6775-1.2223,1.0556,0,1.8332.0224,2.3111.078.4776.0555,1.1889.1556,2.1441.3109v6.2887h0ZM285.5636,149.2269l-21.221,49.7639h-6.5216l6.7549-15.1659-14.4879-34.598h6.6328l11.1663,26.9541,11.2657-26.9541h6.4108ZM351.1755,185.5804h-8.0773l-14.6104-15.899-3.9441,3.7554v12.1436h-6.122v-50.6526h6.122v32.5092l17.6766-18.2101h7.7218l-16.9101,16.7879,18.1435,19.5656h0ZM389.1107,167.4148c0,5.933-1.5222,10.6104-4.5553,14.0324-3.0331,3.4333-7.1107,5.1443-12.2102,5.1443-5.1333,0-9.2217-1.711-12.2437-5.1443-3.0334-3.422-4.5442-8.0994-4.5442-14.0324,0-5.9218,1.5108-10.5993,4.5442-14.0436,3.022-3.4331,7.1104-5.1551,12.2437-5.1551,5.0995,0,9.1771,1.722,12.2102,5.1551,3.0331,3.4443,4.5553,8.1218,4.5553,14.0436h0ZM382.7999,167.4148c0-4.6998-.9221-8.1995-2.7663-10.4881-1.8445-2.289-4.411-3.4334-7.6884-3.4334-3.3112,0-5.8887,1.1444-7.7219,3.4334-1.8331,2.2886-2.7553,5.7883-2.7553,10.4881,0,4.5553.9222,8.0108,2.7664,10.3661,1.8445,2.3553,4.422,3.5331,7.7108,3.5331,3.2553,0,5.8107-1.1665,7.666-3.4997,1.8556-2.3332,2.7887-5.7997,2.7887-10.3995h0ZM430.1462,185.5804h-6.122v-20.6989c0-1.6775-.1001-3.2442-.2889-4.7106-.1998-1.4666-.5556-2.611-1.0777-3.4333-.5443-.9111-1.3221-1.5888-2.3443-2.033-1.0221-.4445-2.3442-.6667-3.9665-.6667-1.6665,0-3.422.411-5.2441,1.2333-1.8221.8331-3.5662,1.8777-5.233,3.1663v27.1429h-6.1217v-36.3535h6.1217v4.0331c1.9111-1.5888,3.8888-2.8218,5.9218-3.7108,2.0444-.8889,4.1332-1.3331,6.2777-1.3331,3.933,0,6.9216,1.1775,8.9883,3.5441,2.0554,2.3664,3.0887,5.7773,3.0887,10.2215v23.5987h0ZM425.0798,131.0282l-8.8883,12.1771h-4.8441l5.8218-12.1771h7.9106ZM98.1235,124.0496h138.8214c.5678.3747,1.1308.7554,1.692,1.146,1.8896,1.3153,3.7007,2.7037,5.5653,4.3107.5556.4788,1.0616.9204,1.6075,1.3975,3.1493,2.751,7.6332,6.6679,10.3042,8.1663l.8776.4924.9329-.3677,4.144-1.6336.987-.3892.2835-1.0227.1857-.6704.3968-1.4338-1.2107-.8583-12.8877-9.1372h13.5213c.3792.4082.8183.9008,1.2886,1.4284,2.8069,3.147,6.5571,7.3522,9.9119,6.8731l2.8372-.4053c2.3114-.3303,3.117-1.5268,2.8661-3.2828-.1905-1.3317-1.9256-3.0473-3.9115-4.6134h169.3959v79.2193H79.6751v-72.1735c4.9192-.847,9.2225-2.1623,13.0167-3.9464,1.9412-.9128,3.7468-1.9457,5.4317-3.0994h0ZM383.1832,113.7576c0,.5524-.0613,1.0851-.184,1.5961-.123.5131-.307.9976-.5513,1.4525l-.0009-.0003c-.2463.4595-.5329.8672-.8592,1.222-.3288.3575-.7007.6639-1.1137.9188-.2843.1757-.5845.3271-.8986.4532-.3132.1253-.6437.2274-.9901.305h-.0017c-.3498.0783-.7444.1361-1.1832.1729-.4374.0369-.9275.0553-1.4692.0553h-3.3299v-12.3721h3.301c.5632,0,1.0803.0216,1.55.0641.4691.0422.8807.1068,1.2322.1922h.0017c.3469.0859.6715.1885.9723.3081.3075.1227.5856.2605.8331.4141.4206.262.7979.5715,1.131.9273.3322.3548.6162.752.8515,1.1894.2364.4385.4144.9209.5329,1.4431.1171.5176.1761,1.0712.1761,1.6583h0ZM380.7437,113.7366c0-.4272-.0366-.8158-.1086-1.1651h-.0003c-.0714-.3447-.178-.6567-.3189-.9345-.138-.2719-.3112-.5157-.5173-.7297-.2066-.2143-.449-.4011-.7254-.5578-.2097-.1194-.424-.2203-.642-.3014-.2143-.0799-.442-.1437-.6812-.1905-.2387-.0467-.5046-.0827-.7954-.1065-.2945-.0241-.6151-.0363-.9598-.0363h-1.0228v8.0645h1.0228c.3557,0,.6894-.0136.9992-.0396.3084-.0258.5936-.0649.8538-.1163.254-.0501.4941-.1201.718-.2092.2268-.0904.4453-.2021.6523-.3339l-.0006-.0008c.2526-.1624.4745-.3504.6644-.5638.188-.2112.3461-.4496.4717-.7138l.0014-.0017c.1273-.2645.224-.5669.2889-.9051.0666-.347.0998-.7342.0998-1.1585h0ZM333.3835,111.4649c0,.2795-.0252.5522-.0751.8169-.0499.2662-.1247.521-.2228.7628-.0964.2379-.2168.4649-.3583.6801v.0017c-.1428.216-.3038.4138-.4816.5916-.2194.2194-.4609.413-.7228.5788-.2588.1644-.5392.3019-.8388.4116h-.0017c-.2988.1091-.6347.1913-1.0052.2452-.3631.053-.7602.0796-1.1891.0796h-1.1154v4.2999h-2.3706v-12.3721h3.5467c.3526,0,.6871.0156,1.0012.0468.3112.0309.5972.0782.8555.1409.2644.0638.5133.1457.746.2449.2333.0992.4553.2191.6648.3572l.0051.0014c.2421.1632.4609.3503.6553.5604.1948.2103.3598.4388.495.6854.14.2551.2443.5423.3126.8597.0661.3076.0992.6435.0992,1.0072h0ZM330.9494,111.5046c0-.1715-.0147-.3308-.0439-.4768-.0281-.1403-.0695-.2685-.1236-.383l-.0006.0003c-.0541-.1137-.121-.2157-.199-.3041h-.0014c-.0808-.0919-.1766-.1741-.2854-.2452l.0005-.0006c-.0983-.0635-.208-.1202-.3274-.1684l.0003-.0006c-.117-.047-.2449-.0858-.3815-.1153l-.0034-.0017c-.1338-.0301-.296-.0533-.4836-.0698-.1896-.0164-.3994-.0246-.6282-.0246h-1.0995v3.7726h.8748c.5799,0,1.0471-.0504,1.3954-.1505.3153-.0907.5701-.2327.7626-.4252l.0008.0008c.1029-.1037.1894-.2092.258-.3135.0672-.1017.121-.2077.1604-.3163v-.0017c.0417-.1131.0731-.233.0936-.3572.0206-.1264.0311-.2667.0311-.4192h0ZM445.3141,119.9331h-4.9723v-2.0134h1.51v-8.3449h-1.51v-2.0138h5.3907v2.0138h-1.5101v8.3449h1.5101v2.0134h-.4184ZM438.4435,119.9331h-2.1779l-.1259-.142-4.2505-4.7937-.728.7711v4.1646h-2.3706v-12.3721h2.3706v5.3674l4.8768-5.2336.1244-.1338h3.0124l-.6696.7061-4.8798,5.146,5.1318,5.8252.612.6948h-.9257ZM426.0816,119.0632c-.1489.064-.2846.1236-.4031.1768-.1171.0528-.235.1075-.3521.163h-.0014c-.1236.0584-.2676.1188-.4297.1798-.1508.0569-.3272.1176-.5273.1814l-.0031.0014c-.1661.0513-.3382.0995-.5151.1429-.1794.0439-.3645.0841-.555.1196v.0003c-.2027.0391-.411.0677-.6245.0861-.2137.0185-.4385.0275-.6732.0275-.4396,0-.8597-.0309-1.2605-.0924-.4063-.0623-.7923-.1565-1.1574-.282-.368-.1265-.7163-.2911-1.0432-.4933-.3245-.2009-.6247-.4379-.8986-.71l-.0017-.0017c-.2729-.2688-.5145-.5726-.7237-.91-.2083-.335-.388-.7061-.538-1.1117-.1471-.4008-.2585-.8376-.3328-1.3071-.0739-.4668-.1111-.9595-.1111-1.4762,0-.4887.036-.9593.1072-1.4103.0717-.4569.1786-.8827.3192-1.277h.0017c.1451-.4042.3214-.7761.5286-1.1143.2101-.3435.4538-.6559.7297-.9363.2667-.2727.5621-.5139.8844-.722.3206-.2069.6684-.3821,1.0414-.5238h.0017c.3739-.1403.7662-.2466,1.1764-.3163.4105-.0701.8391-.1055,1.2847-.1055.3254,0,.6531.0198.9802.0592.3186.0386.6434.0984.9717.1786.3314.0808.6749.1891,1.029.3249.3483.1335.7211.3002,1.1168.4986l.2319.1162v2.4942h-.686l-.1171-.0981c-.2996-.2511-.5998-.4694-.8994-.6536-.2934-.1803-.5845-.3269-.8719-.4368l-.0031-.0015c-.2892-.1125-.5865-.1973-.891-.2525-.305-.0556-.6262-.0834-.9615-.0834-.2718,0-.525.0213-.7577.063-.2333.0419-.455.1051-.6633.189-.2035.0817-.3968.1871-.5791.315-.184.1289-.3577.2823-.5196.4586-.1573.1712-.2982.366-.4207.582-.125.2211-.2335.4674-.324.7378-.091.2702-.1598.5644-.206.8822v.0014c-.0465.3183-.0701.6622-.0701,1.0307,0,.3911.025.7477.0752,1.0683.0496.3178.1247.6106.225.8765v.0017c.0992.2648.2152.5083.3461.7285l-.0005.0003c.125.2095.2642.3951.415.5542l.0017.0017c.1593.1686.3319.3155.5159.4385.1845.1236.3829.2262.5938.3058.2197.0828.4448.1452.6738.1863.2248.0405.4621.0609.7101.0609.3478,0,.6809-.0292.9978-.0873.3175-.0581.6267-.1465.9264-.2642.2993-.1168.5884-.263.8659-.4374.2835-.1783.5568-.3858.8195-.6213l.1199-.1077h.6849v2.4916l-.2531.1092h0ZM413.4895,119.9331h-8.0186v-12.3721h8.437v2.2014h-6.0664v2.3233h6.0664v2.2014h-6.0664v3.4446h6.0664v2.2014h-.4184ZM402.1946,119.9331h-4.9723v-2.0134h1.51v-8.3449h-1.51v-2.0138h5.3907v2.0138h-1.5101v8.3449h1.5101v2.0134h-.4184ZM394.602,119.9331h-9.4204v-1.9905l.093-.1148,6.5239-8.0654h-6.3524v-2.2014h9.405v1.9537l-.0946.1165-6.5883,8.1005h6.8522v2.2014h-.4184ZM367.3718,103.8851l-2.1158,2.8984-.1267.1732h-2.0251l.2861-.5981,1.3855-2.8985.114-.2386h2.9662l-.4842.6636h0ZM369.4944,119.9331h-9.4204v-1.9905l.093-.1148,6.5239-8.0654h-6.3524v-2.2014h9.405v1.9537l-.0946.1165-6.5883,8.1005h6.8522v2.2014h-.4184ZM357.5489,119.9331h-8.0186v-12.3721h8.437v2.2014h-6.0664v2.3233h6.0664v2.2014h-6.0664v3.4446h6.0664v2.2014h-.4184ZM346.2996,116.5185c0,.5581-.0873,1.0573-.2608,1.4956-.1786.4512-.4479.8367-.8056,1.1545h-.0014c-.3512.3107-.7622.5448-1.2305.6999-.4595.1522-.9692.2285-1.529.2285-.1287,0-.2826-.0057-.4621-.0176-.1689-.0108-.3608-.0286-.5737-.0516-.2222-.0238-.419-.049-.5885-.0748-.1822-.0278-.3478-.0582-.4949-.0905l-.3302-.0728v-2.1875h.57l.0672.0227c.0969.0328.2131.0688.3464.1071.1369.0391.2721.0757.4019.108.1355.0335.2767.0598.4221.0771.142.017.2866.0261.4329.0261.2191,0,.4135-.0125.5802-.0363.159-.023.2945-.0561.4037-.0984.1051-.0405.1953-.0884.2684-.1425.0658-.0485.1196-.1035.1596-.1633l.0017-.0034c.0499-.0729.0907-.1556.1222-.2463.0348-.1004.0603-.2109.0762-.3308.0179-.1358.0318-.288.0408-.455.0085-.1559.0128-.3334.0128-.5304v-6.3144h-2.4409v-2.0614h4.8115v8.9575h0ZM321.9029,119.9331h-8.0186v-12.3721h8.437v2.2014h-6.0664v2.3233h6.0664v2.2014h-6.0664v3.4446h6.0664v2.2014h-.4184ZM311.6843,119.9331h-7.717v-12.3721h2.3706v10.1707h5.7648v2.2014h-.4184ZM301.5822,119.9331h-2.1778l-.1259-.142-4.2505-4.7937-.728.7711v4.1646h-2.3706v-12.3721h2.3706v5.3674l4.8767-5.2336.1245-.1338h3.0124l-.6696.7061-4.8798,5.146,5.1318,5.8252.612.6948h-.9258ZM289.1772,116.2223c0,.2571-.0303.5128-.0904.7668h-.0003c-.0589.2497-.1479.4983-.2647.7443-.1185.2495-.2611.4785-.4255.6877-.1641.2086-.3538.4-.5666.5737l-.0017.0017c-.2245.18-.4706.3416-.7359.4836-.2634.1409-.542.2614-.8357.3615h-.0017c-.2996.1006-.6284.1763-.985.2262-.3541.0493-.7333.0742-1.1359.0742-.4232,0-.8328-.0204-1.2262-.0609-.3943-.0408-.7654-.1021-1.1112-.1831v-.0003c-.3467-.08-.6948-.1803-1.0432-.2988-.3458-.1173-.6987-.2571-1.0578-.4173l-.2484-.1108v-2.6084h.6755l.118.0981c.271.2253.5643.426.879.6009.316.1757.6528.3251,1.01.449l.0005-.0014c.3668.1258.7186.2197,1.0531.2806.3297.0604.6523.0907.9666.0907.4462,0,.8371-.0399,1.1707-.1202.3172-.0759.5894-.1907.8141-.3421.2104-.142.3657-.3025.4644-.4796.0963-.1727.1445-.3728.1445-.5993,0-.2137-.0238-.3931-.0711-.536-.0406-.1225-.1004-.2222-.1772-.2968-.0933-.0901-.2163-.1732-.3676-.248-.165-.0814-.3623-.1528-.5899-.2129-.1959-.0519-.3898-.0975-.5811-.1361-.1888-.0382-.4-.0745-.6319-.1082h-.0017c-.2276-.0343-.464-.0738-.7084-.1171-.2185-.0386-.4697-.087-.7514-.1443h-.0034c-.5414-.1151-1.0194-.2735-1.4315-.4751-.4249-.2078-.7781-.4606-1.0576-.7583-.2855-.3035-.5003-.6548-.6438-1.0519-.1406-.3895-.2109-.8175-.2109-1.2835,0-.5491.1182-1.0534.3538-1.5106.233-.4524.5791-.8524,1.0372-1.1979.4464-.3373.9538-.5913,1.5213-.7603v-.0005c.5576-.1659,1.1707-.2495,1.8377-.2495.413,0,.8153.0204,1.2067.061.3895.0405.762.1017,1.116.1831v.0003c.3453.0782.6744.168.9854.267.3189.1015.6145.2123.8861.3311l.2517.1099v2.5025h-.6795l-.117-.0995c-.1987-.1687-.4286-.3229-.6883-.4615-.2633-.1406-.5672-.2696-.9099-.3872-.3376-.1162-.6764-.203-1.0151-.2597-.3402-.0567-.6888-.0853-1.044-.0853-.3793,0-.716.038-1.0086.1131-.2789.072-.5244.1803-.7339.324-.197.1344-.3421.2835-.4342.4462-.0873.1539-.1313.3297-.1313.5258,0,.1956.0244.3668.0723.5125.0442.1344.1083.248.1911.3396h.0017c.0873.0969.216.1865.3838.2667.1888.0905.4249.1687.7061.2325.1531.0343.3489.074.5848.1182.2333.0436.5009.0907.8019.1414.3019.0511.5882.1046.8578.1599.2786.057.5218.112.7259.1641l.0034.0015c.4578.1213.8637.2766,1.2164.4643.3634.1933.6698.422.9173.6848.5096.5389.7647,1.277.7647,2.2139Z"/>
  <metadata>
    <sfw xmlns="http://ns.adobe.com/SaveForWeb/1.0/">
      <slices/>
      <sliceSourceBounds x="62.55" y="284.56" width="444.24" height="201.14" bottomLeftOrigin="true"/>
    </sfw>
  </metadata>
</svg>