<?xml version="1.0" encoding="UTF-8"?>
<svg width="117px" height="24px" viewBox="0 0 117 24" version="1.1" xmlns="http://www.w3.org/2000/svg" xmlns:xlink="http://www.w3.org/1999/xlink">
    <title>0D712F7F-06EA-42C3-B3F9-36FAA7905CAA</title>
    <g id="2022" stroke="none" stroke-width="1" fill="none" fill-rule="evenodd">
        <g id="checkout-pristatymas-pastomatas" transform="translate(-574.000000, -304.000000)">
            <g id="Group-5" transform="translate(221.000000, 291.000000)">
                <g id="Group-100" transform="translate(353.105860, 13.245480)">
                    <path d="M59.0073902,20.7786714 L59.0073902,20.5501819 L58.8744708,20.3799132 L58.4757126,17.5666356 L58.1717922,16.1986277 C58.1717922,16.1986277 57.4497067,14.3168844 56.9169305,13.5380426 C56.9169305,13.5380426 56.1380888,12.2454655 55.701249,11.9415451 C55.2644092,11.6379908 54.2951594,11.0480923 53.0977863,11.0480923 C52.3921783,11.0480923 51.0263674,11.4091351 50.5324052,11.7320963 C50.038443,12.0554237 49.2024788,12.7211192 48.9556808,13.6519212 C48.7077843,14.5834555 48.5558241,16.3125063 48.5748649,16.8632247 C48.5942718,17.4150416 48.8407037,21.1774297 48.8795176,21.4040884 C48.9165007,21.6333102 48.9556808,21.8801083 48.9739893,21.9559053 C48.9926639,22.0320685 49.8099534,21.7087411 50.2856072,21.6139033 C50.7605286,21.5190655 53.937046,21.0558615 54.1615077,20.9873879 C54.3870679,20.9189142 55.3779216,20.8163869 55.701249,20.7786714 C56.0245763,20.7394913 57.7726679,20.4549779 58.0579136,20.4549779 C58.3424271,20.4549779 58.6653883,20.4355709 58.6653883,20.4355709 C58.6653883,20.4355709 59.0073902,20.3608724 59.0648788,20.4549779 C59.1220012,20.5501819 58.7415514,20.8735093 58.5705504,20.8921839 C58.3995495,20.9115908 57.9055873,20.9873879 57.9055873,20.9873879 C57.9055873,20.9873879 58.0201982,21.4809839 58.0007912,21.5754555 C57.9821166,21.6713918 57.6591554,21.8991491 57.6591554,21.8991491 C57.6591554,21.8991491 57.6393823,21.9753122 57.6591554,22.0514754 C57.6781962,22.1276386 57.5639514,22.2979073 57.5064629,22.3553958 C57.4497067,22.4125182 57.3922181,22.6018277 57.3922181,22.6018277 C57.3922181,22.6018277 58.7228768,22.3923789 58.9315932,22.3165819 C59.1406758,22.2404187 59.407247,22.1642555 59.4826778,22.0697839 C59.5584748,21.9745799 59.7682898,21.7087411 59.7682898,21.7087411 L59.7865982,21.3854137 L59.6913942,20.9866555 L59.5405325,20.6069381 L59.0267972,17.7943928 L58.437631,15.8562595 L57.0502161,12.7969162 L55.8916569,11.2948903 L54.3142002,9.96569632 L53.1739495,9.49077493 L52.4899455,9.49077493 L52.1658858,9.49077493 L52.2237405,9.94628935 L52.5272947,9.88916697 L53.0977863,9.87012617 L53.3255435,9.98400478 L53.4017067,10.135965 L53.2501126,10.3450476 L52.7554181,10.477967 L51.5397365,10.6683749 L50.8930818,10.7822535 L50.7407554,10.6302933 L50.6455514,10.4398854 L50.7220808,10.3443152 L50.683633,10.0414933 L50.038443,10.5164147 L49.8289942,10.6870496 L49.1830718,11.5241122 L48.5177425,12.9485102 L48.0805365,14.9060505 L48.0805365,15.7800963 L48.0618619,18.1371272 L48.1947813,20.4355709 L48.3086599,21.8416605 L48.2519037,22.3553958 L48.1753743,22.9255212 L48.2899853,23.3048724 C48.2899853,23.3048724 48.3892171,23.5146874 48.4800271,23.5146874 C48.5712032,23.5132227 48.7268251,23.6281998 48.7268251,23.6281998 L48.8981922,23.6479729 L49.2588689,23.684956 L49.9051574,23.6095252 L50.5129982,23.5524028 L50.874041,23.5337282 L51.1786937,23.5146874 L51.4064509,23.0013182 L51.4254917,22.8112764 L49.9813206,23.0580744 L49.5140888,23.2063729 L49.4492768,22.8306834 L49.5821962,22.2792326 L49.8484012,22.165354 L53.4017067,21.5567809 L56.7462957,21.1389819 L57.3739097,21.0631849 L57.9055873,21.0448764 L58.3424271,20.9679809 L58.7228768,20.9493063 L58.9451415,20.9804306 C58.9308609,20.9002396 59.1754619,20.9884864 59.1754619,20.9884864 C59.1754619,20.9884864 59.1732649,21.0734376 59.1963335,21.1441083 C59.2197684,21.2151451 59.2120788,21.3077859 59.2750599,21.3561202 C59.3369425,21.4029899 59.4145703,21.4264247 59.3369425,21.5047849 C59.2490619,21.595961 59.3219296,21.6779829 59.3464629,21.6779829 C59.3695315,21.6779829 59.6090062,21.7248525 59.6090062,21.7248525 C59.3724609,21.771356 59.2366121,21.7695252 59.1977982,21.7702575 C59.1344509,21.7709899 58.9879833,21.7248525 59.0110519,21.6475908 C59.0348529,21.5681321 59.1754619,21.4670695 59.1754619,21.4670695 C59.1754619,21.4670695 59.0857504,21.4062854 59.0476689,21.3436704 C59.0073902,21.2810555 58.9733365,21.1653461 58.9733365,21.1653461 L58.9531972,21.0111889" id="Fill-6" fill="#FFFFFF"></path>
                    <path d="M48.2719331,22.5240533 C48.4114436,22.3849091 48.6615371,22.3248573 49.4733341,22.1736295 C50.0266157,22.0722006 52.9164227,21.5745767 54.1555391,21.4028434 C55.1335769,21.2684593 57.9801759,20.9249926 58.4591252,20.8744613 C58.9190336,20.8253946 59.4064048,20.8140434 59.482568,20.8184374 C59.6253739,20.8268593 59.7498714,20.873729 59.7945441,21.0542503 C59.8395829,21.2347717 59.9051272,21.6932155 59.8271331,21.7668155 C59.7473083,21.8418802 59.703368,21.8821588 59.1391013,21.8821588 C58.7289918,21.8821588 56.9516068,22.0989309 56.2284227,22.2040215 C55.5059709,22.309112 53.3851192,22.5954563 52.572956,22.7305727 C51.7600605,22.8660553 49.5787908,23.1816931 49.232761,23.3175419 C48.8870973,23.4533906 48.7966535,23.5431021 48.5710933,23.5134424 C48.3455331,23.4834165 48.2397102,23.4226324 48.1792923,23.1523996 C48.1192406,22.8814344 48.1316903,22.6624653 48.2719331,22.5240533" id="Fill-8" fill="#0054A5"></path>
                    <path d="M48.373838,23.4670121 C48.373838,23.4670121 48.497237,23.6530261 48.7454997,23.715641 C48.9941286,23.7775236 51.0640828,23.6032271 52.0564012,23.4545624 C53.0479873,23.3051654 56.6701325,22.8225544 57.0179932,22.7599395 C57.3643893,22.6980569 58.3567077,22.5365763 58.7034699,22.4501604 C59.0505982,22.3633783 59.5218579,22.2388808 59.6708888,22.1275654 C59.8188211,22.0155176 59.881436,21.9540012 59.8437206,21.8921186 C59.8074699,21.8295037 59.5837405,21.8053365 59.4845087,21.8053365 C59.385643,21.8053365 57.4387216,21.9909843 57.277241,22.0283335 C57.1164927,22.066049 54.7107614,22.3509286 54.3142002,22.4128111 C53.917639,22.4750599 51.3994937,22.8474539 51.1138818,22.908238 C50.8293684,22.9708529 49.6385863,23.1696828 49.5140888,23.2062997 C49.3906898,23.243649 48.8077485,23.4172131 48.7454997,23.4289305 C48.6832509,23.4424788 48.373838,23.4670121 48.373838,23.4670121" id="Fill-10" fill="#0054A5"></path>
                    <path d="M51.3375013,9.50787502 C51.618353,9.40864318 52.0152804,9.30977751 52.4458953,9.30977751 C52.8750456,9.30977751 53.9340068,9.52435264 54.6938078,10.0871546 C55.516956,10.6942631 56.6762476,11.7667725 57.6202316,13.5093715 C58.3650197,14.8817735 59.0922316,17.6760103 59.1914635,18.3541556 C59.2910615,19.0323009 59.6524704,20.8997636 59.6524704,20.8997636 L59.4924545,20.8580203 C59.4924545,20.8580203 58.8941341,15.3116561 56.5294137,12.3017457 C56.1149102,11.7740959 55.7026038,11.0959506 54.2646575,10.1193775 C52.7966854,9.12522826 51.4195232,9.80557055 51.4195232,9.80557055 C51.4195232,9.80557055 50.709155,10.1358551 50.29575,10.4665059 C49.3521321,11.2215467 48.9727809,12.0370054 48.741362,12.715883 C48.4436665,13.5880979 48.1291272,14.2699049 48.1628147,17.2464939 C48.1770953,18.560675 48.4890714,22.4127745 48.4890714,22.4127745 L48.3546874,22.4728263 L48.232753,22.6350392 C48.232753,22.6350392 47.6483471,16.1842372 48.0969043,14.1545616 C48.34297,13.0381118 48.6102734,11.839274 49.7172028,10.6649696 C50.2624287,10.0871546 50.8083869,9.75577154 50.8083869,9.75577154" id="Fill-12" fill="#0054A5"></path>
                    <g id="Group-17" transform="translate(47.650178, 0.000000)">
                        <path d="M1.62066468,0 L4.76239602,9.98762985 C4.76239602,9.98762985 4.8777393,10.234794 4.76239602,10.3182806 C4.64595423,10.4006687 4.18311642,10.5493333 3.8854209,10.5826547 C3.58809154,10.61561 3.35667264,10.7639085 3.20727562,10.6317214 C3.05897711,10.4999005 2.91031244,10.1194507 2.91031244,10.1194507 L0,0 C0,0 0.0040278607,0.0139144279 0.0128159204,0.040278607" id="Fill-14" fill="#FFFFFF"></path>
                        <path d="M1.62066468,0 L4.76239602,9.98762985 C4.76239602,9.98762985 4.8777393,10.234794 4.76239602,10.3182806 C4.64595423,10.4006687 4.18311642,10.5493333 3.8854209,10.5826547 C3.58809154,10.61561 3.35667264,10.7639085 3.20727562,10.6317214 C3.05897711,10.4999005 2.91031244,10.1194507 2.91031244,10.1194507 L0,0 C0,0 0.0040278607,0.0139144279 0.0128159204,0.040278607" id="Stroke-16" stroke="#231F20" stroke-width="0.06"></path>
                    </g>
                    <path d="M48.4154714,22.5562396 C48.4154714,22.5562396 48.2591172,22.6342336 48.2393441,22.8674834 C48.2279928,23.0015013 48.2668068,23.2343849 48.353955,23.3175053 C48.5088446,23.4639729 48.6487212,23.4434675 48.6487212,23.4434675 C48.6487212,23.4434675 48.542166,23.3446018 48.5081122,23.1259988 C48.4747908,22.907762 48.4154714,22.5562396 48.4154714,22.5562396" id="Fill-18" fill="#FFFFFF"></path>
                    <path d="M48.5887427,22.5621349 C48.5887427,22.5621349 48.6374432,22.947711 48.6469636,23.0432812 C48.6601457,23.1622862 48.7608422,23.3731996 48.8754531,23.3391459 C49.0819725,23.2754324 49.0376661,23.2157469 49.0314412,23.1820593 C49.0021477,23.0268036 48.9600382,23.0648852 48.9431944,22.9634563 C48.9256183,22.8620275 48.8077118,22.6514802 48.8077118,22.6514802 C48.8077118,22.6514802 48.8417656,22.7192215 48.8582432,22.815524 C48.8754531,22.912925 48.879481,23.1318941 48.879481,23.1318941 C48.879481,23.1318941 48.8879029,23.1871857 48.8501875,23.1904812 C48.8121059,23.1952414 48.7948959,23.1820593 48.7740243,23.1190782 C48.7535188,23.0564633 48.5887427,22.5621349 48.5887427,22.5621349" id="Fill-20" fill="#FFFFFF"></path>
                    <path d="M49.3713194,23.1539375 C49.3713194,23.1539375 49.3541095,22.8188927 49.3094368,22.7061126 C49.2636657,22.5955296 49.1662647,22.4681027 49.0901015,22.421233 C49.0512876,22.3963335 48.9447323,22.3652092 48.9447323,22.3652092 C48.9447323,22.3652092 49.0263881,22.4626101 49.0183323,22.5017902 C49.0099104,22.5409703 49.015403,22.5607435 48.9927005,22.5775873 C48.9703642,22.5955296 48.8641751,22.5607435 48.9081154,22.6057823 C48.9527881,22.6508211 49.0183323,22.7625027 49.0230925,22.8155972 C49.0289512,22.8690579 49.0315144,22.9162937 49.0315144,22.9393624 C49.0315144,22.9620649 49.0937632,22.9031116 49.0937632,22.9031116 C49.0937632,22.9031116 49.1102408,22.9708529 49.1160995,23.0287077 C49.1219582,23.0876609 49.1076776,23.1217146 49.1076776,23.1407554 C49.1076776,23.1612609 49.0765532,23.2667176 49.0765532,23.2667176 L49.3713194,23.1539375 Z" id="Fill-22" fill="#FFFFFF"></path>
                    <path d="M49.688129,22.2456915 C49.8305688,22.220792 51.4303618,21.9542209 52.0070782,21.8549891 C52.3820354,21.7901771 54.8097369,21.4393871 55.1015737,21.408995 C55.3930444,21.3771383 56.9185051,21.185998 57.1166026,21.1603662 C57.3143339,21.136199 57.6372951,21.1237493 57.6936852,21.1237493 C57.7486105,21.1237493 57.8789668,21.1292418 57.8980076,21.1918567 C57.916316,21.2537393 57.9412155,21.5386189 57.9287658,21.5697433 C57.916316,21.6012338 57.8668832,21.7301254 57.8050006,21.7868816 C57.7427518,21.8429055 57.64352,21.9044219 57.550513,21.9102806 C57.4578722,21.9168716 56.9368135,21.991204 56.9368135,21.991204 L57.5314722,21.8234985 C57.5314722,21.8234985 56.781924,21.9168716 56.5830941,21.9476299 C56.3849966,21.9787542 56.1056096,22.0157373 55.9935618,22.041003 C55.8822464,22.0659025 55.4856852,22.1160677 55.2187479,22.1523184 C54.9525429,22.1896677 53.6434882,22.3943562 52.9748633,22.5056716 C52.3047737,22.6177194 51.0898245,22.7656517 50.6116076,22.8718408 C50.1344892,22.9776637 49.5013827,23.1193711 49.5013827,23.1193711 C49.5013827,23.1193711 49.5394643,23.0512637 49.7437867,22.8037333 C49.9001409,22.61479 49.9671499,22.5492458 49.9294344,22.4309731 C49.8964792,22.3247841 49.688129,22.2456915 49.688129,22.2456915" id="Fill-24" fill="#FFFFFF"></path>
                    <path d="M50.6677413,10.3535793 C50.6677413,10.3535793 50.6864159,10.3154977 50.621604,10.3682261 C50.5677771,10.4103355 50.5183443,10.4345027 50.5714388,10.560831 C50.6241672,10.6871594 50.6073234,10.6695833 50.7146109,10.7962778 C50.7911403,10.8889186 50.8526567,10.8786659 51.1294806,10.8252052 C51.407403,10.7717445 51.7072955,10.6670201 52.0866468,10.6238121 C52.465998,10.580238 52.8892896,10.5330022 53.0745711,10.4989485 C53.2591204,10.4648947 53.3850826,10.4879634 53.4780896,10.3319753 C53.5707303,10.1767196 53.4583164,9.98960716 53.4334169,9.89769871 C53.4099821,9.80542408 53.3294249,9.7991992 53.1972378,9.78528478 C53.0661493,9.77027184 52.1855124,9.84240716 52.1855124,9.84240716 L52.3257552,9.98264995 C52.3257552,9.98264995 52.8709811,9.9463992 52.9877891,9.93907582 C53.1148498,9.93065393 53.2613174,9.8764609 53.3180736,10.0679674 C53.3579861,10.1997883 53.3627463,10.2960907 53.0892179,10.3382002 C52.9910846,10.3539455 52.2873075,10.4407276 52.1119124,10.4605007 C51.9361512,10.4799077 51.2466547,10.6260092 51.119594,10.6402898 C50.9932657,10.6545703 50.9595781,10.6937504 50.87719,10.6355296 C50.7937035,10.5769425 50.716808,10.4161942 50.716808,10.4161942 L50.7219343,10.3444251 L50.6823881,10.3444251" id="Fill-26" fill="#0054A5"></path>
                    <path d="M49.2545481,13.0297632 C49.2545481,13.0297632 49.7247093,12.3102408 50.2706675,11.9887443 C50.8166257,11.6657831 51.5233321,11.3984796 52.0817401,11.3018109 C52.7961361,11.1776796 53.3424605,11.0978547 54.1114157,11.2798408 C54.8811033,11.4610945 55.4380466,11.6657831 56.1319371,12.4178945 C56.1319371,12.4178945 56.8855132,13.5339781 57.2077421,14.0638249 C57.519352,14.574997 56.7115829,12.9221095 56.2908545,12.4263164 C56.0455212,12.139606 55.5284903,11.5339622 54.7437899,11.2684896 C53.9990018,11.0180299 53.0000923,10.8206647 51.6976287,11.1399642 C50.5972903,11.4090985 49.9982376,11.947001 49.7909859,12.2033194 C49.5848326,12.4596378 49.2545481,13.0297632 49.2545481,13.0297632" id="Fill-28" fill="#0054A5"></path>
                    <path d="M58.3753457,17.3249274 C58.2296103,16.5662249 58.1201258,16.1883383 57.9458293,15.7046289 C57.8495268,15.4395224 57.7319865,15.1337711 57.6752302,15.0118368 C57.4119546,14.449401 57.3101596,14.2018706 57.3101596,14.2018706 C57.3101596,14.2018706 57.9227606,15.2809711 58.2801417,16.3758169 C58.6331288,17.4582129 58.9451049,20.4553075 58.9451049,20.4553075 L58.8711387,20.4922905 C58.8711387,20.4922905 58.521081,18.0836299 58.3753457,17.3249274" id="Fill-30" fill="#0054A5"></path>
                    <path d="M49.0954476,13.3129584 C48.9108983,13.699633 48.4660028,15.7238161 48.6922953,18.6608589 C48.7666277,19.62425 49.0782376,21.7883097 49.0980107,21.9252569 C49.1075311,21.9893365 48.8940545,22.0742878 48.8940545,22.0742878 C48.8940545,22.0742878 48.353955,18.4239475 48.4407371,16.4396768 C48.5300824,14.3968191 49.0954476,13.3129584 49.0954476,13.3129584" id="Fill-32" fill="#0054A5"></path>
                    <path d="M53.5770651,9.63698627 C53.5770651,9.63698627 54.3013477,5.32168279 54.4229158,4.51135045 C54.5430193,3.6999196 54.5605954,3.26784 54.5605954,3.26784 L53.3181835,9.51578428 L53.4038671,9.65492856 L53.5770651,9.63698627 Z" id="Fill-34" fill="#0054A5"></path>
                    <path d="M53.8475908,11.2371821 C53.8475908,11.2371821 53.3126177,11.4612776 53.0764386,11.6861055 C53.0006416,11.7575085 52.7487172,12.1061015 53.1456446,12.3126209 C53.326166,12.4074587 53.4865481,12.4656796 53.62496,12.5195065 C53.7919331,12.5839522 54.0222535,12.6930706 54.1343013,12.7966965 C54.3419192,12.9852736 54.4741063,13.2276776 54.4217441,13.6249711 C54.3712127,14.0215323 54.2884585,14.0068856 54.2727132,14.4814408 C54.261362,14.8446806 54.4916824,15.661604 54.7161441,16.0069015 C54.9406058,16.3525652 55.0266555,17.0365692 55.0266555,17.1577711 C55.0266555,17.2782408 54.9058197,17.1804736 54.9058197,17.1804736 C54.9058197,17.1804736 54.7736326,16.3174129 54.6355869,16.0420537 C54.4975411,15.7652299 54.3997739,15.5579781 54.1862973,15.2815204 C54.0544764,15.1105194 54.1115988,14.8446806 53.9911292,14.7176199 C53.6806177,14.3928279 53.4795908,14.3964896 53.306759,14.3785473 C53.1339272,14.3617035 53.5465998,14.1998567 53.8062137,14.29799 C54.0826714,14.4016159 54.0079729,14.2174328 54.0486177,14.1192995 C54.1295411,13.9223005 54.2672207,13.5901851 54.1471172,13.2104677 C54.0251829,12.8307502 53.8871371,12.743602 53.8871371,12.743602 C53.8871371,12.743602 53.8589421,12.6520597 53.6231292,12.5605174 C53.2192446,12.4026985 52.8750456,12.4682428 52.7648287,12.1061015 C52.6729202,11.8010826 52.969151,11.5799164 53.202767,11.4671363 C53.5249958,11.3111483 53.8475908,11.2371821 53.8475908,11.2371821" id="Fill-36" fill="#0054A5"></path>
                    <path d="M52.755528,11.4057664 C52.755528,11.4057664 52.4556354,11.6360868 52.5017727,11.9974957 C52.5482762,12.3585385 52.5863578,12.3585385 52.7789628,12.4738818 C52.9712016,12.5892251 53.3545807,12.7349604 53.6160255,12.8730062 C53.8782026,13.0117843 54.0697091,13.5189286 53.8782026,13.734236 C53.6859638,13.9495435 53.4398981,14.0191156 53.0554205,14.0191156 C52.6716752,14.0191156 52.5863578,13.9945823 51.9419001,14.0949126 C51.2956115,14.1956092 51.164523,14.2260012 50.6496892,14.4793902 C50.1352215,14.7327793 49.8045707,15.0019136 49.8045707,15.0019136 L50.3889767,14.5255276 C50.3889767,14.5255276 50.2351857,14.4793902 49.9510384,14.6178022 C49.6661588,14.755848 49.5434921,14.8107733 49.5434921,14.8107733 C50.3384454,14.2454082 50.4395081,14.1725405 50.5574145,14.1183475 C51.0422225,13.8953504 51.5717031,13.7415594 51.5717031,13.7415594 C51.5717031,13.7415594 52.3791061,13.5189286 52.6182145,13.4731574 C52.8554921,13.4266539 52.5252076,13.3497584 52.4556354,13.3113106 C52.4021747,13.2812848 52.4175538,13.2809186 52.5252076,13.2651733 C52.6328613,13.2494281 52.6940115,13.2113465 52.6940115,13.0960032 C52.6940115,12.9813922 52.5405867,12.6884569 52.4951817,12.6122937 C52.4486782,12.535032 52.2568056,12.4358002 51.8108115,12.5196529 C51.46112,12.5855634 51.0806702,12.6580649 50.7653986,12.8195455 L50.4658722,12.9579574 L50.5965946,12.8045325 C50.5965946,12.8045325 50.1886822,12.8806957 50.0352573,12.9502679 C49.8814663,13.01984 49.566927,13.2113465 49.566927,13.2113465 L49.5277469,13.1425067 C49.5277469,13.1425067 49.4819757,13.0733007 49.5434921,13.0117843 C49.6053747,12.9502679 50.0279339,12.6046042 50.5277548,12.4277445 C51.0264772,12.2512509 51.6431061,12.0421684 51.7639419,12.0205644 C51.9338444,11.9898062 52.0792135,11.9898062 52.2330046,11.8744629 C52.3864295,11.7591196 52.755528,11.4057664 52.755528,11.4057664" id="Fill-38" fill="#0054A5"></path>
                    <path d="M52.2003789,15.6354961 C52.2003789,15.6354961 52.04256,16.0485349 51.7873401,16.2913051 C51.5324864,16.5340752 51.2164824,16.8379956 50.9619948,16.9844633 C50.7067749,17.1294663 50.2095172,17.3118185 50.2095172,17.3118185 C50.2095172,17.3118185 50.8528764,16.9716474 51.3622177,16.5102742 C51.8726575,16.0485349 52.2003789,15.6354961 52.2003789,15.6354961" id="Fill-40" fill="#0054A5"></path>
                    <path d="M50.3057099,17.785678 C50.3057099,17.785678 50.7560979,17.2752382 51.2167387,17.1170531 C51.6781118,16.9592342 51.7513457,16.8735506 52.1398511,16.8735506 C52.529089,16.8735506 52.8926949,17.0317357 52.8926949,17.0317357 C52.8926949,17.0317357 52.4679387,16.9958511 52.0069317,17.0683526 C51.5448263,17.1423188 51.1442372,17.2752382 50.9135506,17.40889 C50.6824979,17.5421755 50.3057099,17.785678 50.3057099,17.785678" id="Fill-42" fill="#0054A5"></path>
                    <path d="M51.7029747,17.3844665 C51.9457449,17.3844665 52.5404036,17.311965 53.0014105,17.2387311 C53.4638822,17.1651311 53.9377051,17.1292466 54.1808414,17.093362 C54.4239777,17.0560127 54.4836633,17.0080446 54.8238344,16.9717938 C55.1643717,16.9355431 55.3643001,16.9260227 55.7319339,16.978751 C55.9498046,17.0095093 56.1900115,17.06297 56.4214304,17.1969879 C56.5367737,17.2588704 56.7590384,17.4445182 56.7590384,17.4445182 C56.7590384,17.4445182 56.3789548,17.2980505 56.0391499,17.2497162 C55.6982464,17.2013819 55.5990145,17.1607371 54.9589508,17.2676585 C54.3478145,17.3690874 54.0764832,17.4628267 53.7842802,17.5968446 C53.4931757,17.7301301 53.2778683,17.7704088 53.1134583,17.7964068 C52.9834683,17.8180107 52.7846384,17.8015331 52.7846384,17.8015331 C52.7846384,17.8015331 53.6022941,17.54375 53.876921,17.3610316 C54.004714,17.2753481 54.1434921,17.2387311 54.1434921,17.2387311 C54.1434921,17.2387311 53.7908712,17.2017481 53.5246663,17.2387311 C53.2569966,17.2753481 52.9658921,17.311965 52.7106722,17.3720167 C52.4558185,17.433167 52.212316,17.4697839 52.0665807,17.5173859 C51.9208454,17.5668187 51.5206225,17.6276028 51.5206225,17.6276028 L51.8003757,17.4697839 L51.7029747,17.3844665 Z" id="Fill-44" fill="#0054A5"></path>
                    <path d="M56.7787383,17.4547343 C56.7787383,17.4547343 56.9647522,17.5437134 57.102798,17.6912796 C57.2404776,17.8392119 57.3781572,17.941007 57.5462289,18.3998169 C57.6542488,18.6953154 57.8600358,19.2566527 57.8995821,19.4430328 C58.0083343,19.9549373 57.9292418,20.2401831 57.8900617,20.3185433 C57.8501493,20.3976358 57.7523821,20.564609 57.7523821,20.564609 L57.3686368,20.6235622 L57.3982965,20.4459701 C57.3982965,20.4459701 57.6344756,20.2401831 57.6641353,20.0926169 C57.693795,19.9446846 57.693795,19.6392995 57.566002,19.3837134 C57.4374766,19.1277612 57.1910448,18.8725413 57.1910448,18.8725413 L57.4374766,18.9805612 C57.4374766,18.9805612 57.3389771,18.8132219 57.2598846,18.7542687 C57.1815244,18.6953154 57.3686368,18.7048358 57.3686368,18.7048358 C57.3686368,18.7048358 57.3887761,18.635996 57.2899104,18.3606368 C57.1910448,18.0852776 57.1225711,17.8487323 56.9940458,17.7106866 C56.8669851,17.573007 56.7787383,17.4547343 56.7787383,17.4547343" id="Fill-46" fill="#0054A5"></path>
                    <path d="M50.992277,21.4108991 C50.992277,21.4108991 52.2610531,20.1904573 53.7473337,19.5416056 C54.8359546,19.0652195 55.7158591,18.9604951 55.971079,18.9996752 C56.2270312,19.0395877 56.4434372,19.0644872 56.6700959,19.2259678 C57.1911546,19.6001926 57.2215467,20.4764354 57.2215467,20.4764354 L57.2112939,20.5844553 L57.3687467,20.5445429 C57.3687467,20.5445429 57.438685,20.1461508 57.2112939,19.6693986 C56.9059089,19.0297011 56.5521895,18.8132951 56.1288979,18.7543419 C55.7056064,18.6950225 54.603071,18.8330683 53.423274,19.4035598 C52.2416462,19.9740513 51.2581158,20.8693349 50.992277,21.1260195 C50.7264382,21.3808732 50.6575984,21.5280732 50.6575984,21.5280732 L50.9040302,21.538326 L50.992277,21.4108991 Z" id="Fill-48" fill="#0054A5"></path>
                    <path d="M58.8182273,20.3339956 C58.8182273,20.3339956 57.2898372,20.4764354 56.8669118,20.5049966 C56.4432541,20.5357548 56.1781477,20.6236354 55.60729,20.7225011 C55.0547407,20.8177051 54.3868482,20.9187678 54.3868482,20.9187678 L55.7742631,20.5844553 C55.7742631,20.5844553 53.7859646,20.9187678 53.3926989,20.9773548 C52.9997994,21.0366742 49.0070909,21.7140872 48.8320621,21.906326 C48.6416541,22.1161409 48.8364561,22.3618404 48.9463069,22.3248573 C49.1169417,22.2673688 48.9144501,22.0648772 49.1356163,21.9737011 C49.2308203,21.9341548 49.9001775,21.7843916 50.3036959,21.6957787 C50.7068482,21.6078981 51.4838591,21.4984135 52.9207069,21.243926 C54.3579208,20.9876076 57.4868362,20.6430424 57.5948561,20.6430424 C57.5948561,20.6430424 57.9441815,20.5958066 58.0965079,20.5767658 C58.2492004,20.5566265 58.4773238,20.5218404 58.6724919,20.5020673 C58.7977218,20.4892513 58.9075725,20.4984056 58.9394293,20.5456414 C58.9701875,20.592511 58.9592024,20.6390145 58.9394293,20.7144454 C58.9196561,20.7880454 58.8841377,20.8865449 58.8841377,20.8865449 C58.8841377,20.8865449 58.9866651,20.882517 59.0141278,20.882517 C59.0412243,20.882517 59.0723487,20.9096135 59.1075009,20.8037906 C59.1433855,20.6983339 59.146681,20.5412474 59.1122611,20.4434802 C59.0767427,20.345713 58.8182273,20.3339956 58.8182273,20.3339956" id="Fill-50" fill="#0054A5"></path>
                    <path d="M55.902642,18.3608565 C55.902642,18.3608565 55.1065902,18.2352605 54.4947216,18.4293301 C53.2852649,18.8130754 52.0545703,19.6486734 51.4156052,20.1613102 C50.6382281,20.7834316 49.9677723,21.6366058 49.9677723,21.6366058 L49.6144191,21.6461262 L49.4375594,21.7643988 C49.4375594,21.7643988 49.8505982,21.0954078 50.1160708,20.840554 C50.3819097,20.5846018 50.8052012,19.9939709 51.5829445,19.4520406 C52.3599554,18.9112088 52.4782281,18.8723948 52.4782281,18.8723948 C52.4782281,18.8723948 52.5272947,18.7149421 52.1131574,18.9210953 C51.7012171,19.1276147 51.6019853,19.2565063 51.6019853,19.2565063 L51.9362977,18.8621421 L51.4544191,19.1082078 C51.4544191,19.1082078 51.6118718,18.7834157 51.9362977,18.53735 C52.2610898,18.2912844 52.4983674,18.1437182 52.9593743,18.0360645 C53.4233106,17.9273122 53.3636251,17.9371988 53.5115574,17.918158 C53.6591236,17.8983849 53.7568907,18.1243112 53.7568907,18.1243112 L53.8751634,18.3216764 C53.8751634,18.3216764 53.9044569,18.4392167 54.279048,18.3114237 C54.5976151,18.2023053 55.0560589,18.1924187 55.2622121,18.1924187 C55.4690977,18.1924187 55.902642,18.3608565 55.902642,18.3608565" id="Fill-52" fill="#0054A5"></path>
                    <path d="M49.70457,21.746127 C49.70457,21.746127 49.4453222,21.5868434 49.6906555,20.9526384 C49.9228068,20.3510225 50.0593879,20.131321 50.3739272,19.8310623 C50.6595391,19.5579001 51.0308346,19.2975538 51.0308346,19.2975538 C51.0308346,19.2975538 50.66137,19.4209528 50.3739272,19.5849966 C50.0872167,19.7490404 49.9499033,19.9134503 49.841151,20.0086543 C49.7313003,20.1049568 50.0733023,19.6120931 50.0733023,19.6120931 C50.0733023,19.6120931 49.70457,19.8310623 49.6086336,19.9134503 C49.5126973,19.9958384 50.1274953,19.2840056 50.1274953,19.2840056 C50.1274953,19.2840056 49.7313003,19.4890603 49.5529759,19.6120931 C49.3753839,19.7358583 49.2512525,19.8050643 49.0883073,20.1188712 C48.8968008,20.4876036 48.9242635,20.9797349 48.9242635,20.9797349 L48.9927371,21.7999538 L49.1432326,21.8416971 L49.70457,21.746127 Z" id="Fill-54" fill="#0054A5"></path>
                    <path d="M47.0913305,13.6067359 C47.0913305,13.6067359 47.0235893,13.9293309 47.2099694,14.6433608 C47.3970818,15.3570245 47.499243,17.4456533 47.601038,17.9051956 C47.702833,18.3636394 48.1667694,21.8221071 48.1667694,21.8221071 C48.1667694,21.8221071 47.7544629,17.2768494 47.7544629,16.7667757 C47.7544629,16.2570683 47.6687793,15.1354921 47.7365206,14.7458882 C47.8046281,14.3540872 47.8892131,14.2017608 47.8551594,13.7253747 C47.8225703,13.2504533 47.7705743,13.011711 47.6519355,12.7231698 C47.5332967,12.4338961 47.3970818,12.4177847 47.3970818,12.4177847 C47.3970818,12.4177847 47.3461843,12.4002086 47.3970818,12.6382185 C47.4479793,12.8758623 47.4311355,12.8758623 47.4139256,13.3009847 C47.3970818,13.7253747 47.3293405,13.6909548 47.3630281,14.0823897 C47.3970818,14.4738245 47.4651893,15.1860235 47.4651893,15.1860235 L47.0913305,13.6067359 Z" id="Fill-56" fill="#0054A5"></path>
                    <path d="M46.117284,6.22432637 C46.117284,6.22432637 46.5713337,9.30234428 46.6207666,9.60992637 C46.6701994,9.91860697 46.788472,10.8102289 47.2439865,11.0566607 C47.7002332,11.3034587 48.1890691,11.3393433 48.4230511,11.3393433 C48.6581317,11.3393433 48.9507009,11.3254289 48.9507009,11.3254289 L48.2747526,11.5246249 C48.2747526,11.5246249 48.4230511,11.5363423 48.595883,11.5612418 C48.7687148,11.5861413 48.9415467,11.5337791 48.9415467,11.5337791 C48.9415467,11.5337791 48.5845317,11.75641 48.2147009,11.8794428 C47.8445039,12.0028418 47.6427447,11.9662249 47.4607586,12.1218468 C47.2337337,12.3166488 47.2395924,12.4741015 47.1901596,12.6590169 C47.1407268,12.8435662 47.0964203,13.5865234 47.0964203,13.5865234 L47.0795765,13.4847284 C47.0795765,13.4847284 47.0425934,12.1039045 47.0052442,11.8823721 C46.9678949,11.6601075 47.0301437,11.5246249 46.9195606,11.3766925 C46.807879,11.2287602 46.5980641,11.0438448 46.5120143,10.5989493 C46.4255984,10.1555184 46.3519984,8.3440796 46.3519984,8.3440796 L46.117284,6.22432637 Z" id="Fill-58" fill="#0054A5"></path>
                    <path d="M47.6500681,0 C47.6500681,0 47.6540959,0.0139144279 47.662884,0.040278607 C47.8207029,0.542296517 49.3915686,5.53720995 49.4853079,5.80341493 C49.5849059,6.08536517 50.4783586,9.24320796 50.6101795,9.55738109 C50.7420004,9.8719204 50.8584422,10.3245055 50.9734193,10.4164139 C51.0931566,10.5134488 51.1751785,10.5112517 51.3059009,10.4804935 C51.4937457,10.4372856 51.8998273,10.3054647 51.9825815,10.284593 C52.1118392,10.2527363 52.2623347,10.2084299 52.2378014,10.1172537 L49.2707327,0 L52.4190551,9.97591244 C52.4190551,9.97591244 52.5278074,10.234794 52.4124641,10.3182806 C52.2960223,10.4006687 51.8090173,10.5614169 51.5175467,10.6291582 C51.2315686,10.6939701 50.9891646,10.7730627 50.8397676,10.6405095 C50.6914691,10.50759 50.5607467,10.1194507 50.5607467,10.1194507 L47.6500681,0 Z" id="Fill-60" fill="#0054A5"></path>
                    <path d="M57.966115,21.1121051 L58.0386165,21.0952613 C58.0386165,21.0952613 58.0638822,21.1571439 58.1166105,21.2248852 C58.1704374,21.2918941 58.2337847,21.3794086 58.2575857,21.4090683 C58.2817528,21.4376295 58.3011598,21.5980115 58.3110464,21.6269389 C58.3209329,21.6558663 58.3502265,21.709327 58.3502265,21.7236076 C58.3502265,21.7382543 58.3938006,21.7972076 58.3209329,21.8213747 C58.2480653,21.8448096 58.2187717,21.8598225 58.2187717,21.8598225 C58.2187717,21.8598225 58.0682762,21.8799618 58.0203081,21.8799618 C57.9716076,21.8799618 57.7533707,21.908523 57.7533707,21.908523 C57.7533707,21.908523 58.0243359,21.8213747 58.0386165,21.8063618 C58.1319897,21.7140872 58.0298285,21.5203837 58.0247021,21.4376295 C58.0203081,21.3548752 57.966115,21.1121051 57.966115,21.1121051" id="Fill-62" fill="#FFFFFF"></path>
                    <path d="M58.5271594,21.760078 C58.5271594,21.760078 58.686443,21.7479944 58.7336788,21.6853795 C58.7798161,21.6227646 58.7798161,21.5839506 58.764437,21.5282929 C58.7486917,21.4737337 58.6780211,21.1526034 58.6780211,21.1526034 L58.8039833,21.3012681 C58.8039833,21.3012681 58.7886042,21.5048581 58.8512191,21.5755288 C58.9145664,21.6458332 58.976449,21.740671 58.976449,21.764472 C58.976449,21.7875407 58.9061445,21.8175666 58.8585425,21.8182989 C58.719032,21.8234253 58.5271594,21.760078 58.5271594,21.760078" id="Fill-64" fill="#FFFFFF"></path>
                    <path d="M59.3696414,20.9270798 C59.3696414,20.9270798 59.5486981,20.912433 59.6153409,20.9743156 C59.6808852,21.0365644 59.6955319,21.1068689 59.7090802,21.1822997 C59.7233608,21.2573644 59.7372752,21.5404131 59.7372752,21.5404131 C59.7372752,21.5404131 59.6625767,21.1533723 59.5963001,21.0731813 C59.5292911,20.9929902 59.3696414,20.9270798 59.3696414,20.9270798" id="Fill-66" fill="#FFFFFF"></path>
                    <path d="M51.1719562,23.4291136 C51.1719562,23.4291136 51.5110289,23.0409743 51.5688836,23.0083853 C51.6271045,22.9746977 53.7351403,22.652835 54.3711761,22.5620251 C55.0086766,22.470849 56.7695841,22.2643296 57.0581254,22.2313743 C57.2650109,22.2064748 57.5630726,22.1731534 57.5630726,22.1731534 L57.2485333,22.5539694 C57.2485333,22.5539694 53.8834388,22.9995972 53.329791,23.090041 C52.7754109,23.1815833 51.1719562,23.4291136 51.1719562,23.4291136" id="Fill-68" fill="#FFFFFF"></path>
                    <path d="M57.8108959,22.1482173 L57.5553099,22.5070631 C57.5553099,22.5070631 58.1415467,22.3972123 58.2492004,22.3719467 C58.356488,22.346681 58.9438233,22.23207 59.0646591,22.1833696 C59.2473775,22.1094034 59.4081258,21.9607387 59.4081258,21.9607387 C59.4081258,21.9607387 58.5212641,22.032874 58.1825576,22.0819407 C58.0357238,22.1039108 57.8108959,22.1482173 57.8108959,22.1482173" id="Fill-70" fill="#FFFFFF"></path>
                    <path d="M51.2878121,23.0409377 C51.2878121,23.0409377 50.9820609,23.3800103 50.9655833,23.4045437 C50.9487395,23.429077 50.8828291,23.4792422 50.8165524,23.4876641 C50.7510082,23.496086 49.8579216,23.5788402 49.8161783,23.5865298 C49.7751674,23.5953178 49.040632,23.6004442 48.9747216,23.5920223 C48.9080788,23.5839666 49.3621286,23.4305417 49.4529385,23.3895307 C49.5441146,23.3485198 50.2464271,23.1983904 50.4115694,23.1650691 C50.577444,23.13248 51.2878121,23.0409377 51.2878121,23.0409377" id="Fill-72" fill="#FFFFFF"></path>
                    <path d="M58.7520605,18.2464287 C58.9571152,18.890154 58.9809162,18.8561003 59.0230257,19.3464008 C59.0783172,19.9959849 59.0490237,20.3156505 59.0490237,20.3156505 L58.8926695,19.1226714 L58.7520605,18.2464287 Z" id="Fill-74" fill="#0054A5"></path>
                    <path d="M55.7149071,2.93920318 L55.8368414,2.93920318 C55.9748872,2.93920318 56.0924275,2.88867184 56.0924275,2.75868179 C56.0924275,2.66640716 56.0254185,2.57413254 55.8368414,2.57413254 C55.7822822,2.57413254 55.7449329,2.5781604 55.7149071,2.5829206 L55.7149071,2.93920318 Z M55.7149071,3.52214448 L55.5475678,3.52214448 L55.5475678,2.46904199 C55.6354484,2.45695841 55.7189349,2.44377632 55.8448971,2.44377632 C56.0041807,2.44377632 56.1096374,2.47746388 56.1722523,2.52396736 C56.2352334,2.56937234 56.2678225,2.64114149 56.2678225,2.74147184 C56.2678225,2.87988378 56.1762802,2.96446886 56.0635001,2.99779025 L56.0635001,3.00584597 C56.1554086,3.02268975 56.2187558,3.10690866 56.2388951,3.26143204 C56.2641608,3.42584199 56.2894265,3.48772458 56.3059041,3.52214448 L56.1305091,3.52214448 C56.1052434,3.48772458 56.0796115,3.39142209 56.0583737,3.25337632 C56.0338404,3.1182599 55.9668314,3.06809473 55.8320812,3.06809473 L55.7149071,3.06809473 L55.7149071,3.52214448 Z M55.8917668,2.17537433 C55.4761648,2.17537433 55.1363598,2.53238925 55.1363598,2.97215841 C55.1363598,3.42144796 55.4761648,3.77333652 55.8957946,3.77333652 C56.314326,3.77773055 56.6497369,3.42144796 56.6497369,2.97655244 C56.6497369,2.53238925 56.314326,2.17537433 55.8957946,2.17537433 L55.8917668,2.17537433 Z M55.8957946,2.02890667 C56.4106285,2.02890667 56.8218364,2.44853652 56.8218364,2.97215841 C56.8218364,3.50493453 56.4106285,3.92053652 55.8917668,3.92053652 C55.3754683,3.92053652 54.9565707,3.50493453 54.9565707,2.97215841 C54.9565707,2.44853652 55.3754683,2.02890667 55.8917668,2.02890667 L55.8957946,2.02890667 Z" id="Fill-76" fill="#0054A5"></path>
                    <polygon id="Fill-78" fill="#B8292F" points="8.10881592 20.640113 5.48301692 20.640113 6.21865075 16.8026603 3.361799 16.8026603 2.625799 20.640113 0 20.640113 1.84659104 10.9018444 4.47312239 10.9018444 3.79424478 14.451122 6.65146269 14.451122 7.32960796 10.9018444 9.97005373 10.9018444"></polygon>
                    <path d="M15.5979272,13.1525763 C13.8802277,13.1525763 12.9860426,15.0709365 12.9860426,16.7743554 C12.9860426,17.8417385 13.4474157,18.3759793 14.3416008,18.3759793 C15.9578714,18.3759793 16.9681321,16.5282898 16.9681321,14.6384907 C16.9681321,13.8014281 16.5496008,13.1525763 15.5979272,13.1525763 M13.9384486,20.8424947 C11.326564,20.8424947 10.1723988,19.4433624 10.1723988,17.2507415 C10.1723988,13.7725007 12.7121481,10.6999753 16.0300068,10.6999753 C18.5122675,10.6999753 19.7524824,12.0126917 19.7524824,14.3210221 C19.7524824,18.115633 17.097756,20.8424947 13.9384486,20.8424947" id="Fill-80" fill="#B8292F"></path>
                    <path d="M24.5858786,13.0370866 C24.3698388,13.0370866 24.1237731,13.0513672 24.0373572,13.0663801 L23.6484856,15.1579383 C23.7495483,15.1722189 23.9227463,15.1868657 24.0662846,15.1868657 C24.9901294,15.1868657 25.5382846,14.4644139 25.5382846,13.7441592 C25.5382846,13.3106149 25.2490109,13.0370866 24.5858786,13.0370866 M25.9714627,16.6731463 C26.1160995,17.0048955 26.2889313,17.4084139 26.4339343,17.7837373 L27.5295124,20.6402229 L24.4848159,20.6402229 L23.3734925,17.0909453 L23.2735284,17.0909453 L22.5946507,20.6402229 L19.9684856,20.6402229 L21.815809,10.9019542 C22.7246408,10.8433672 23.8934527,10.8290866 25.0333373,10.8290866 C27.3270209,10.8290866 28.3658428,11.6668816 28.3658428,13.196004 C28.3658428,14.7547861 27.6009154,15.9803542 25.9714627,16.6731463" id="Fill-82" fill="#B8292F"></path>
                    <path d="M35.0036474,13.1958575 C34.5847499,13.0512207 34.0801688,12.9362436 33.63271,12.9362436 C32.6799379,12.9362436 32.3632016,13.268359 32.3632016,13.7300983 C32.3632016,14.768554 34.9168653,14.8121282 34.9168653,17.1783132 C34.9168653,19.1834555 33.1273966,20.842568 30.5737329,20.842568 C29.8238185,20.842568 29.1310265,20.7707988 28.5971518,20.6697361 L29.0592573,18.1739272 C29.5923996,18.3756864 30.1552016,18.491762 30.7180036,18.491762 C31.5986404,18.491762 32.0168056,18.2306834 32.0168056,17.6686137 C32.0168056,16.6297918 29.4627757,16.658353 29.4627757,14.3500227 C29.4627757,12.359161 30.8044195,10.7000486 33.6620036,10.7000486 C34.3108553,10.7000486 34.9168653,10.7571709 35.4646543,10.8432207 L35.0036474,13.1958575 Z" id="Fill-84" fill="#B8292F"></path>
                    <polygon id="Fill-86" fill="#B8292F" points="42.6073696 13.1812107 39.6494551 13.1812107 39.3891089 14.5525142 42.2027526 14.5525142 41.7699407 16.7458675 38.9709437 16.7458675 38.6677556 18.3181978 41.62567 18.3181978 41.1932243 20.6400764 35.6091447 20.6400764 37.4561019 10.9018078 43.0394492 10.9018078"></polygon>
                    <path d="M74.1249401,20.6286519 L71.2684545,20.6286519 L71.4273719,17.3821962 C71.4559331,16.7333445 71.4984088,16.0119912 71.5712764,15.1749286 L71.5427152,15.1749286 C71.239161,16.0259057 70.8931311,16.8333087 70.4896127,17.7289584 L69.1768963,20.6286519 L66.7231968,20.6286519 L66.4643152,18.0464271 C66.377167,17.1515097 66.3343252,16.0694798 66.3489719,15.1749286 L66.3343252,15.1749286 C66.1032724,16.1273345 65.8722197,16.8776151 65.6418993,17.6128828 L64.6752127,20.6286519 L61.9468864,20.6286519 L65.3958336,10.8892848 L68.3691272,10.8892848 L68.7287053,14.2660967 C68.8004744,14.9435097 68.8301341,15.6216549 68.8301341,16.4733644 L68.8594277,16.4733644 C69.1615172,15.6513146 69.4504247,14.9878161 69.8257481,14.2221564 L71.4705799,10.8892848 L74.356359,10.8892848 L74.1249401,20.6286519 Z" id="Fill-88" fill="#B8292F"></path>
                    <path d="M80.2829166,15.7082539 C80.2115136,15.1461843 80.1529266,14.6265902 80.1379136,14.0216788 L80.1100848,14.0216788 C79.8936788,14.5830161 79.6047713,15.2175873 79.2876689,15.8671713 L78.7680748,16.9349206 L80.4268211,16.9349206 L80.2829166,15.7082539 Z M80.8885604,20.628835 L80.6868012,19.0414917 L77.7435335,19.0414917 L76.9639594,20.628835 L74.2953186,20.628835 L79.2587415,10.8894679 L82.2737783,10.8894679 L83.6890221,20.628835 L80.8885604,20.628835 Z" id="Fill-90" fill="#B8292F"></path>
                    <path d="M88.8099343,13.0252959 C88.5924299,13.0252959 88.3492935,13.0392103 88.2617791,13.0545895 L87.8725413,15.1461477 C87.9728716,15.1604283 88.1457035,15.175075 88.2907065,15.175075 C89.2141851,15.175075 89.7623403,14.4529895 89.7623403,13.7320024 C89.7623403,13.2991904 89.473799,13.0252959 88.8099343,13.0252959 M90.1955184,16.6609895 C90.3390567,16.9923725 90.5122547,17.3966233 90.6572577,17.7712143 L91.7535682,20.6287984 L88.7085055,20.6287984 L87.5979144,17.079887 L87.4968517,17.079887 L86.8190726,20.6287984 L84.1929075,20.6287984 L86.0398647,10.8894312 C86.9483303,10.8312103 88.1182408,10.8180283 89.2570269,10.8180283 C91.551809,10.8180283 92.5898985,11.6550909 92.5898985,13.1838472 C92.5898985,14.7415307 91.8253373,15.9681974 90.1955184,16.6609895" id="Fill-92" fill="#B8292F"></path>
                    <polygon id="Fill-94" fill="#B8292F" points="98.5345449 15.7672804 100.367221 20.6285421 97.1214981 20.6285421 95.9512215 16.1847132 95.1009767 20.6285421 92.4744454 20.6285421 94.3214026 10.8895411 96.9486663 10.8895411 96.168726 15.0594754 98.9098683 10.8895411 102.228459 10.8895411"></polygon>
                    <polygon id="Fill-96" fill="#B8292F" points="108.172593 13.1697497 105.216143 13.1697497 104.955431 14.5395885 107.769075 14.5395885 107.336629 16.7333079 104.537632 16.7333079 104.233711 18.3056382 107.191992 18.3056382 106.758448 20.6286153 101.174734 20.6286153 103.022424 10.8892482 108.606503 10.8892482"></polygon>
                    <polygon id="Fill-98" fill="#B8292F" points="115.61824 13.1980179 113.555243 13.1980179 112.141098 20.6286886 109.514933 20.6286886 110.928712 13.1980179 108.865348 13.1980179 109.298893 10.8893214 116.051052 10.8893214"></polygon>
                </g>
            </g>
        </g>
    </g>
</svg>