<svg width="90" height="131" viewbox="0 0 90 131" fill="none" xmlns="http://www.w3.org/2000/svg">
    <g clip-path="url(#clip0_725_9585)">
        <path d="M0 35.7054H90V0.30805C89.656 0.279985 86.6324 0.0455637 81.6827 0H78.3373C61.2928 0.150888 28.527 2.71335 0 18.1532V35.7054Z" fill="#0081C6" />
        <path d="M0 35.7056V78.7699C0.0592672 79.9985 0.15628 81.8405 0.249319 82.896C0.256273 82.9703 0.261901 83.0433 0.269517 83.109C0.271834 83.14 0.276139 83.1707 0.279119 83.1995H89.7212C89.7245 83.1704 89.7282 83.1397 89.7308 83.109C89.7381 83.0436 89.7437 82.9703 89.7507 82.896C89.844 81.8405 89.9407 79.9985 90.0003 78.7699V35.7056H0Z" fill="#004178" />
        <path d="M0.277466 83.1997C2.4336 103.356 15.43 122.902 42.0065 130.357C42.0065 130.357 43.8057 130.814 45.0003 130.814C46.1949 130.814 47.9942 130.357 47.9942 130.357C74.5703 122.902 87.5667 103.356 89.7229 83.1997H0.277466Z" fill="url(#paint0_linear_725_9585)" />
        <path d="M20.2571 60.5846C24.2442 60.5846 26.7583 59.3518 27.9403 56.815C28.4744 55.7205 28.7701 54.1169 28.7701 52.3049V41.9151C28.7681 40.7387 28.7681 39.9482 29.8389 39.8984L30.0405 39.8885V39.0356H24.0926V39.8779L24.2826 39.8964C25.3812 40.0077 25.3812 40.7892 25.3809 41.9382V51.7073C25.3809 54.3206 25.0018 55.8902 24.0754 57.1234C23.1817 58.2731 21.9318 58.8311 20.2571 58.8311H20.2117C18.5367 58.8311 17.2871 58.2731 16.3945 57.1234C15.4654 55.8906 15.0876 54.3206 15.0876 51.7073V41.9382C15.0876 40.7892 15.0876 40.0077 16.1856 39.8964L16.3746 39.8779V39.0356H10.4297V39.8885L10.631 39.8984C11.7005 39.9486 11.7005 40.7387 11.6991 41.9151V52.3049C11.6991 54.1169 11.9958 55.7205 12.5289 56.815C13.7092 59.3518 16.222 60.5846 20.2121 60.5846H20.2571Z" fill="white" />
        <path d="M37.6549 41.7362C35.8097 43.8024 34.8746 46.4943 34.8746 49.736C34.8746 53.1839 35.907 56.1129 37.783 57.9843C39.5154 59.7094 42.3092 60.5851 46.0828 60.5851C48.3958 60.5851 51.2132 59.9693 52.7786 59.1247L52.8793 59.0696L53.1654 55.0524H52.3048L52.2598 55.1996C51.581 57.3761 49.9295 58.7239 45.905 58.7239C39.175 58.7239 38.6525 51.7751 38.6525 49.6458C38.6525 46.8318 39.3664 40.2878 45.9646 40.2878C49.2726 40.2878 51.5797 41.2288 52.0039 43.1639L52.0393 43.328H52.8276V39.8295L52.7061 39.7744C51.1119 39.0321 48.7014 38.5884 46.2639 38.5884C42.535 38.5887 39.4776 39.7063 37.6549 41.7362Z" fill="white" />
        <path d="M67.2818 58.385C64.731 58.385 64.3767 58.0819 64.3767 55.9051V42.2096C64.3767 40.8872 64.3767 40.7156 67.6424 40.7156C73.2026 40.8192 75.7908 43.562 75.7908 49.3462C75.7908 57.3103 71.4915 58.385 67.2818 58.385ZM76.8103 41.6955C74.9041 39.9116 72.2497 39.068 68.4533 39.0356H58.9364V39.8588L59.1294 39.8746C59.9138 39.9439 60.9883 40.3884 60.9883 42.0253V57.1469C60.9436 58.5901 60.1906 59.0619 59.1222 59.1768L58.9354 59.1976V60.1366H67.852C71.1901 60.1366 73.6492 59.5165 75.5842 58.1869C77.4023 56.9369 79.571 54.3675 79.571 49.228C79.5707 46.0419 78.6158 43.4375 76.8103 41.6955Z" fill="white" />
        <path d="M20.9018 70.9641C20.2787 71.4309 19.3797 71.6673 18.2295 71.6673C18.2295 71.6673 16.3455 71.6673 16.0042 71.6673V65.6311C16.3363 65.6311 17.9133 65.6311 17.9133 65.6311C19.3917 65.6311 20.424 65.8864 20.9853 66.3909C21.5375 66.8907 21.8186 67.6508 21.8186 68.6496C21.8186 69.7266 21.5101 70.5068 20.9018 70.9641ZM22.2285 65.3228C21.321 64.6258 19.9178 64.2712 18.055 64.2705H14.3023V73.0283H18.2613C19.9628 73.0283 21.2909 72.6638 22.2093 71.947C23.1447 71.2127 23.6175 70.136 23.6175 68.7466C23.6178 67.1846 23.1493 66.0336 22.2285 65.3228Z" fill="white" />
        <path d="M35.6937 64.2705H34.1971V69.5047C34.1971 70.2535 33.9723 70.8254 33.5107 71.2563C33.0551 71.6809 32.381 71.8945 31.5049 71.8945C30.6142 71.8945 29.9265 71.6829 29.463 71.2649C28.9995 70.8469 28.7723 70.2724 28.7723 69.505V64.2705H27.0708V69.5004C27.0708 70.6412 27.4641 71.564 28.2393 72.2435C29.0091 72.9144 30.1355 73.2548 31.5857 73.2548C32.8684 73.2548 33.916 72.922 34.6967 72.2646C35.4937 71.5983 35.8986 70.6679 35.8986 69.5004V64.2705H35.6937Z" fill="white" />
        <path d="M45.4861 71.3481C45.1586 71.56 44.655 71.6673 43.9931 71.6673C43.9931 71.6673 41.4105 71.6673 41.0539 71.6673V69.1485C41.4098 69.1485 43.914 69.1485 43.914 69.1485C44.6262 69.1485 45.153 69.2627 45.4824 69.4875C45.7907 69.7002 45.9393 70.0086 45.9393 70.4302C45.939 70.8472 45.792 71.1473 45.4861 71.3481ZM41.0539 65.6311C41.4082 65.6311 43.8305 65.6311 43.8305 65.6311C44.5113 65.6311 45.005 65.7233 45.299 65.9072C45.5675 66.0749 45.6976 66.3433 45.6976 66.7296C45.6976 67.0829 45.5778 67.3398 45.3314 67.5134C45.0662 67.6957 44.6596 67.7891 44.1239 67.7891C44.1239 67.7891 41.4138 67.7891 41.0542 67.7891V65.6311H41.0539ZM47.0515 68.9418C46.7889 68.7136 46.4635 68.5575 46.1089 68.4356C46.3979 68.3197 46.6532 68.1768 46.8515 67.9896C47.2144 67.6432 47.3988 67.176 47.3988 66.6005C47.3988 65.822 47.1078 65.2297 46.5353 64.8394C45.9824 64.4571 45.0957 64.2708 43.8229 64.2705H39.3521V73.0283H44.0749C45.2361 73.0283 46.1413 72.8051 46.7648 72.366C47.4107 71.9067 47.7385 71.2728 47.7385 70.4797C47.7392 69.8488 47.5081 69.3307 47.0515 68.9418Z" fill="white" />
        <path d="M53.2821 64.2705H51.7836V73.0283H58.6579V71.6673C58.6579 71.6673 53.8619 71.6673 53.4858 71.6673C53.4858 71.2827 53.4858 64.2705 53.4858 64.2705H53.2821Z" fill="white" />
        <path d="M63.0192 64.2705H61.5203V73.0283H63.2219V64.2705H63.0192Z" fill="white" />
        <path d="M75.4954 64.2705H73.9975C73.9975 64.2705 73.9975 70.0924 73.9975 71.0502C73.3979 70.275 68.7618 64.2705 68.7618 64.2705H66.6765V73.0283H68.3774C68.3774 73.0283 68.3774 67.2054 68.3774 66.2476C68.9767 67.0241 73.6134 73.0283 73.6134 73.0283H75.6987V64.2705H75.4954Z" fill="white" />
        <path d="M61.0435 21.4966H60.8349L59.2502 33.2976H79.1743L79.1084 32.5243H60.0912L61.0435 21.4966Z" fill="black" />
        <path d="M67.8718 29.0455V24.8064C67.8718 23.8684 68.645 23.107 69.6012 23.107C70.5564 23.107 71.3305 23.8684 71.3305 24.8064C71.3305 24.8064 71.3305 24.8064 71.3305 24.8084V29.0455H67.8718ZM74.7872 15.9836V18.1029H71.3305V15.9836C71.3305 15.7481 71.1362 15.5566 70.8978 15.5566H68.3023C68.0665 15.5566 67.8718 15.7481 67.8718 15.9836V18.1029H64.4145V15.9925C64.4145 15.7191 64.3039 15.5566 64.0513 15.5566H61.3882C61.1508 15.5566 60.9551 15.7481 60.9551 15.9836V18.1029H59.6599C59.4208 18.1029 59.2271 18.2941 59.2271 18.5272V19.3738C59.2271 19.6092 59.4208 19.7987 59.6599 19.7987H60.0913V21.0712C60.0913 21.3056 60.2856 21.4961 60.525 21.4961H61.0435L60.0913 32.5238H79.1098L78.1578 21.4961H78.677C78.9151 21.4961 79.1098 21.3059 79.1098 21.0712V19.7987H79.5412C79.7809 19.7987 79.9729 19.6092 79.9729 19.3738V18.5272C79.9729 18.2938 79.7809 18.1029 79.5412 18.1029H78.2456V15.9836C78.2456 15.7481 78.0506 15.5566 77.8118 15.5566H75.2577C74.8359 15.5566 74.7872 15.7613 74.7872 15.9836Z" fill="white" />
        <path d="M74.4359 13.4069C73.7426 13.325 73.5549 11.6936 74.526 10.9718C74.4704 11.096 74.4012 11.655 74.5945 12.0314C75.0011 12.8205 74.7982 13.3623 74.4359 13.4069ZM70.3382 12.6603C68.3082 12.4451 69.2155 8.17299 70.619 7.44793C70.516 7.67146 70.3485 9.03638 70.7892 9.8737C71.5663 11.3529 71.3971 12.5177 70.3382 12.6603ZM65.5392 13.9266C64.8552 13.9266 64.3708 13.0909 64.7886 12.2559C65.0317 11.8607 65.5392 11.6187 65.3621 10.3003C65.9571 11.1571 66.1935 11.6873 66.2435 11.8171C66.5739 12.6511 66.5739 13.8377 65.5392 13.9266ZM75.4617 11.4466C74.9044 10.8064 75.3064 9.71125 75.5044 9.48146C74.6485 9.71456 73.7833 10.0589 73.3628 10.677C73.2764 9.99388 73.1665 9.14534 72.1993 8.06667C70.6276 6.3161 71.9047 5.0598 72.302 4.60449C68.6777 5.5884 66.8199 9.17275 67.5239 11.6612C67.3855 11.3304 67.0997 11.0508 66.8828 10.6704C65.9975 9.11728 66.6683 8.47872 66.8481 7.97818C63.394 9.82153 62.255 12.905 64.0986 14.5314C64.0986 14.5314 64.7019 15.1802 65.6528 15.1802C66.8848 15.1049 68.0503 13.5396 67.6474 12.0234C68.0851 13.112 69.0151 14.1035 70.6779 14.124C71.4024 14.0778 72.2987 13.3821 72.7864 12.6247C72.6923 13.4808 73.4052 15.1185 75.0316 14.5219C75.9318 14.0662 76.4752 12.6115 75.4617 11.4466Z" fill="white" />
        <path d="M34.0472 22.854H33.8634L32.4612 33.2983H50.0947L50.0361 32.6142H33.2058L34.0472 22.854Z" fill="black" />
        <path d="M40.0908 29.5357V25.7823C40.0908 24.9529 40.7755 24.2793 41.6214 24.2793C42.4667 24.2793 43.1521 24.9529 43.1521 25.7823C43.1521 25.7823 43.1521 25.7823 43.1521 25.7846V29.5353H40.0908V29.5357ZM46.2112 17.9747V19.8504H43.1518V17.9747C43.1518 17.7667 42.9793 17.5977 42.7697 17.5977H40.4715C40.2629 17.5977 40.0908 17.7667 40.0908 17.9747V19.8504H37.0304V17.9833C37.0304 17.7416 36.9324 17.598 36.7096 17.598H34.3538C34.1429 17.598 33.9707 17.767 33.9707 17.975V19.8507H32.8241C32.6112 19.8507 32.44 20.0198 32.44 20.2271V20.9763C32.44 21.185 32.6112 21.3524 32.8241 21.3524H33.2062V22.4789C33.2062 22.6859 33.3774 22.8543 33.5889 22.8543H34.0475L33.2062 32.6145H50.0377L49.1941 22.8543H49.6553C49.8652 22.8543 50.0377 22.6859 50.0377 22.4789V21.3524H50.4208C50.6317 21.3524 50.8016 21.185 50.8016 20.9763V20.2271C50.8016 20.0198 50.6314 19.8507 50.4208 19.8507H49.2732V17.9747C49.2732 17.7667 49.1 17.5977 48.8885 17.5977H46.6274C46.2545 17.5977 46.2112 17.7779 46.2112 17.9747Z" fill="white" />
        <path d="M46.0771 15.5053C45.4387 15.4311 45.2675 13.9324 46.1592 13.2701C46.1079 13.3837 46.045 13.8964 46.2218 14.2421C46.5966 14.9672 46.4092 15.4644 46.0771 15.5053ZM42.329 15.0989C40.598 14.9503 40.9973 11.6945 42.3664 10.353C42.2757 10.5505 42.3883 11.8441 42.7896 12.4889C43.4369 13.5322 43.4316 15.0596 42.329 15.0989ZM38.1393 15.7995C37.586 15.7995 37.1923 15.1223 37.5324 14.4458C37.729 14.1249 38.1393 13.9294 37.9956 12.8607C38.4793 13.555 38.6704 13.9846 38.7104 14.0892C38.9776 14.7661 38.9776 15.7272 38.1393 15.7995ZM47.0082 13.6884C46.4837 12.8551 46.7506 12.0263 46.9244 11.8233C46.1678 12.029 45.3152 12.8108 44.9447 13.3592C44.8345 12.7557 44.9447 12.2617 43.9206 10.9675C42.63 9.33477 43.6604 8.30728 44.012 7.90381C40.8046 8.7748 40.1858 10.809 39.7186 13.1945C39.5945 12.9013 39.4468 12.6064 39.1683 12.1528C38.8657 11.6582 38.8929 11.0002 39.1683 10.4514C36.1109 12.0831 35.2898 14.8949 36.7476 16.5688C36.7476 16.5688 37.1599 17.1724 38.2052 17.144C39.2955 17.0776 40.2951 15.9626 39.9375 14.6205C40.3259 15.5849 41.103 16.311 42.5754 16.3281C43.2154 16.2885 44.0094 15.6721 44.4405 15.0025C44.357 15.7596 45.0967 17.0235 46.2926 16.7326C47.2833 16.4585 48.025 15.3063 47.0082 13.6884Z" fill="white" />
        <path d="M11.2525 25.3418H11.1111L10.0436 33.2979H23.4764L23.4307 32.7763H10.6098L11.2525 25.3418Z" fill="black" />
        <path d="M15.8551 30.431V27.5724C15.8551 26.9407 16.3766 26.4273 17.0223 26.4273C17.6643 26.4273 18.1871 26.9411 18.1871 27.5724C18.1871 27.5724 18.1871 27.5724 18.1871 27.5743V30.431H15.8551ZM20.5177 21.6247V23.0536H18.1871V21.6247C18.1871 21.4665 18.0566 21.3374 17.8961 21.3374H16.1462C15.9866 21.3374 15.8551 21.4665 15.8551 21.6247V23.0536H13.5245V21.6316C13.5245 21.4467 13.45 21.3374 13.2798 21.3374H11.4849C11.325 21.3374 11.1932 21.4665 11.1932 21.6247V23.0536H10.3185C10.1585 23.0536 10.0271 23.1827 10.0271 23.3402V23.9111C10.0271 24.0699 10.1585 24.1973 10.3185 24.1973H10.6098V25.0551C10.6098 25.213 10.7406 25.3417 10.9025 25.3417H11.2525L10.6102 32.7762H23.4331L22.7911 25.3417H23.1417C23.3013 25.3417 23.4331 25.213 23.4331 25.0551V24.1973H23.7244C23.8857 24.1973 24.0151 24.0699 24.0151 23.9111V23.3402C24.0151 23.1827 23.8857 23.0536 23.7244 23.0536H22.8493V21.6247C22.8493 21.4665 22.7182 21.3374 22.557 21.3374H20.8349C20.5521 21.3371 20.5177 21.4748 20.5177 21.6247Z" fill="white" />
        <path d="M20.3988 19.7364C19.8952 19.6776 19.7598 18.494 20.4644 17.97C20.423 18.0598 20.3733 18.4653 20.5144 18.7386C20.8084 19.3105 20.6617 19.7037 20.3988 19.7364ZM17.5428 18.9806C16.3289 18.8512 16.8716 16.2973 17.7106 15.8645C17.6504 15.9982 17.5487 16.8137 17.8133 17.3143C18.2775 18.1998 18.1758 18.8958 17.5428 18.9806ZM14.251 19.9477C13.8261 19.9477 13.5232 19.4261 13.7851 18.9057C13.9344 18.6601 14.251 18.5082 14.1404 17.687C14.5129 18.2209 14.6605 18.5514 14.6913 18.6317C14.8969 19.153 14.8969 19.8923 14.251 19.9477ZM21.1044 18.3094C20.6737 17.7131 21.0048 16.9749 21.1372 16.8197C20.3058 17.0036 19.7847 17.6652 19.5019 18.0826C19.5426 17.4156 19.1446 16.8197 18.7741 16.2874C17.8649 14.9876 18.5751 14.2605 18.8427 13.9531C16.3995 14.6164 15.4595 16.4221 15.5575 18.2764C15.4651 18.0522 15.3303 17.9565 15.2264 17.6794C14.8281 16.6203 15.2376 16.1299 15.3585 15.7922C12.4372 17.1172 11.9571 19.4313 13.2004 20.5278C13.2004 20.5278 13.6649 21.0574 14.4629 20.959C15.2936 20.9075 15.9763 19.9778 15.7045 18.9549C15.9998 19.6892 16.6263 20.3575 17.7484 20.371C18.2358 20.3403 18.8463 20.2303 19.1695 19.361C19.1062 19.9378 20.2075 21.2899 21.1372 20.2627C21.6024 19.7008 21.5746 18.9589 21.1044 18.3094Z" fill="white" />
        <path d="M47.0244 125.325C32.201 116.75 24.6396 104.597 26.3587 86.6393C26.319 86.6092 26.0322 86.3834 25.7034 86.1338C23.2735 104.472 31.9536 117.396 46.7777 125.971L47.0244 125.325Z" fill="black" />
        <path d="M47.0245 125.325L48.0757 122.612C36.1176 114.057 33.2748 103.111 33.7496 89.3682C31.1839 89.2513 28.75 88.445 26.3587 86.6387C24.6397 104.597 32.201 116.75 47.0245 125.325Z" fill="url(#paint1_linear_725_9585)" />
        <path d="M63.8357 85.8478C56.8994 82.2863 51.6038 82.456 45.2387 84.47C37.628 86.877 31.1758 87.5802 25.5018 82.4451C25.5028 82.4431 25.5031 82.4414 25.5041 82.4385C25.3958 82.6841 25.2912 82.9393 25.1971 83.2078C30.8702 88.3406 37.0456 87.3541 44.7467 85.2486C52.4167 83.1513 56.7014 82.7416 63.6642 86.3289L63.8357 85.8478Z" fill="black" />
        <path d="M45.9556 79.1113C40.1968 80.9989 33.9515 80.604 30.5134 77.1973C28.4308 78.129 26.3604 79.9734 25.5018 82.4454C31.1759 87.5805 37.6281 86.8773 45.2388 84.4703C51.6039 82.4559 56.8995 82.2865 63.8358 85.8481L64.8029 83.2044C60.3062 78.4113 51.3499 77.3432 45.9556 79.1113Z" fill="url(#paint2_linear_725_9585)" />
        <path d="M63.4181 87.25L51.5524 121.448C49.8019 120.631 47.9481 119.346 46.7154 118.474L46.3588 119.232C47.7633 120.297 50.7604 122.113 51.9203 122.494L63.8005 87.427C63.6876 87.3718 63.5562 87.3127 63.4181 87.25Z" fill="black" />
        <path d="M46.7155 118.474C47.9485 119.347 49.802 120.632 51.5525 121.449L63.4192 87.2477C62.7321 86.9235 62.0507 86.6531 61.3776 86.4292L46.7155 118.474Z" fill="url(#paint3_linear_725_9585)" />
        <path d="M35.5187 89.3472C35.3038 89.3614 35.0789 89.3769 34.8369 89.3947L44.7739 106.303L45.1603 105.716L35.5187 89.3472Z" fill="black" />
        <path d="M46.5966 103.549L38.028 89.0078C37.1741 89.1739 36.3394 89.2898 35.5176 89.3466L35.5186 89.3472L45.1606 105.716L46.5966 103.549Z" fill="white" />
        <path d="M41.1506 88.2124C41.0641 88.2365 40.7546 88.3296 40.5622 88.3923L48.105 101.268L48.4911 100.683L41.1506 88.2124Z" fill="black" />
        <path d="M49.9226 98.5178L43.4118 87.4673C42.6334 87.7549 41.9129 87.979 41.2163 88.1913C41.1947 88.1973 41.1725 88.2046 41.1507 88.2121L48.4909 100.682L49.9226 98.5178Z" fill="white" />
        <path d="M48.016 85.7993C48.0075 85.8003 47.9946 85.8064 47.9861 85.8084C47.996 85.8051 48.0051 85.8017 48.016 85.7993Z" fill="black" />
        <path d="M46.3523 86.3789C46.1933 86.4347 46.0099 86.5014 45.8046 86.5783L51.4357 96.2299L51.8171 95.6531L46.3523 86.3789Z" fill="black" />
        <path d="M53.2504 93.4878L48.6044 85.604C48.4044 85.6667 48.2107 85.7334 48.0153 85.7995C48.0051 85.8018 47.9958 85.8054 47.9862 85.8084C47.5409 85.9563 47.0939 86.1125 46.6403 86.2766C46.5439 86.3109 46.4499 86.3426 46.3525 86.3789L51.8174 95.6535L53.2504 93.4878Z" fill="white" />
        <path d="M51.7022 84.7866C51.4585 84.8348 51.2277 84.884 51.0277 84.9312L54.7483 91.2233L55.143 90.6247L51.7022 84.7866Z" fill="black" />
        <path d="M56.5766 88.4584L54.1904 84.4062C53.9487 84.4304 53.7139 84.465 53.4762 84.4951C53.3451 84.5129 53.2097 84.5254 53.0785 84.5449C52.9693 84.5614 52.862 84.5773 52.7544 84.5948C52.4306 84.6469 52.1101 84.7044 51.7935 84.7675C51.7617 84.7734 51.7319 84.7787 51.7021 84.7846L51.7028 84.7866L55.1439 90.6244L56.5766 88.4584Z" fill="white" />
        <path d="M60.5015 86.1631L44.6149 116.527C44.1928 116.141 42.2346 114.195 41.0377 111.96L40.6241 112.573C41.6161 114.523 43.7934 116.925 44.7669 117.756L60.8756 86.2879C60.7899 86.2506 60.6564 86.2083 60.5015 86.1631Z" fill="black" />
        <path d="M41.0363 111.955C42.2323 114.191 44.1924 116.14 44.6149 116.527L60.5031 86.1603C59.7902 85.9615 59.086 85.8143 58.3933 85.7109L41.0363 111.955Z" fill="url(#paint4_linear_725_9585)" />
    </g>
    <defs>
        <linearGradient id="paint0_linear_725_9585" x1="0.277433" y1="107.007" x2="89.7227" y2="107.007" gradientunits="userSpaceOnUse">
            <stop stop-color="#008734" />
            <stop offset="0.1352" stop-color="#00962F" />
            <stop offset="0.2908" stop-color="#4EA628" />
            <stop offset="0.418" stop-color="#6FB121" />
            <stop offset="0.5" stop-color="#7AB51D" />
            <stop offset="0.5964" stop-color="#67AE23" />
            <stop offset="0.7775" stop-color="#209D2C" />
            <stop offset="1" stop-color="#008734" />
        </linearGradient>
        <linearGradient id="paint1_linear_725_9585" x1="30.8667" y1="111.777" x2="43.52" y2="99.0885" gradientunits="userSpaceOnUse">
            <stop stop-color="#E7AC00" />
            <stop offset="0.0843" stop-color="#E7AC00" />
            <stop offset="0.0981" stop-color="#E8AE00" />
            <stop offset="0.2759" stop-color="#F1C300" />
            <stop offset="0.4343" stop-color="#F7D000" />
            <stop offset="0.5562" stop-color="#F8D400" />
            <stop offset="0.9045" stop-color="#C1A13D" />
            <stop offset="1" stop-color="#C1A13D" />
        </linearGradient>
        <linearGradient id="paint2_linear_725_9585" x1="25.4683" y1="81.761" x2="64.7851" y2="81.761" gradientunits="userSpaceOnUse">
            <stop stop-color="#E7AC00" />
            <stop offset="0.1405" stop-color="#E7AC00" />
            <stop offset="0.1555" stop-color="#E8AE00" />
            <stop offset="0.3481" stop-color="#F1C300" />
            <stop offset="0.5196" stop-color="#F7D000" />
            <stop offset="0.6517" stop-color="#F8D400" />
            <stop offset="1" stop-color="#C1A13D" />
        </linearGradient>
        <linearGradient id="paint3_linear_725_9585" x1="46.689" y1="103.949" x2="63.3886" y2="103.949" gradientunits="userSpaceOnUse">
            <stop stop-color="#E7AC00" />
            <stop offset="0.1405" stop-color="#E7AC00" />
            <stop offset="0.1555" stop-color="#E8AE00" />
            <stop offset="0.3481" stop-color="#F1C300" />
            <stop offset="0.5196" stop-color="#F7D000" />
            <stop offset="0.6517" stop-color="#F8D400" />
            <stop offset="1" stop-color="#C1A13D" />
        </linearGradient>
        <linearGradient id="paint4_linear_725_9585" x1="41.0392" y1="101.113" x2="60.5135" y2="101.113" gradientunits="userSpaceOnUse">
            <stop stop-color="#E7AC00" />
            <stop offset="0.1405" stop-color="#E7AC00" />
            <stop offset="0.1555" stop-color="#E8AE00" />
            <stop offset="0.3481" stop-color="#F1C300" />
            <stop offset="0.5196" stop-color="#F7D000" />
            <stop offset="0.6517" stop-color="#F8D400" />
            <stop offset="1" stop-color="#C1A13D" />
        </linearGradient>
        <clipPath id="clip0_725_9585">
            <rect width="90" height="130.814" fill="white" />
        </clipPath>
    </defs>
</svg>